<svg xmlns="http://www.w3.org/2000/svg" viewBox="0 0 320 320">
  <g fill="none" stroke="#a17b3e" stroke-linecap="round" stroke-linejoin="round">
    <path stroke-width="1.45" d="M18 104c39-56 95-78 157-68 57 9 99 48 127 104"/>
    <path stroke-width="1.25" d="M78 60c-12 39-2 70 31 92 29 20 45 52 49 96 2 23 14 42 38 58"/>
    <path stroke-width="1.05" d="M46 78c-2 17 3 31 16 43m54-79c7 16 19 27 36 33m49-29c-5 17-2 32 9 46m48-8c-13 11-20 25-19 42M99 143c-18 2-32 10-42 24m77 27c16-7 31-6 46 2m-23 48c-17 4-29 13-37 27m47-9c15 2 27 10 36 23"/>
    <g stroke-width="1">
      <path d="M44 78c-13 0-22-6-27-17 11-6 22-3 31 8m68-26c-2-14 3-24 15-30 7 11 5 22-5 33m83 1c8-12 18-17 31-14-2 13-10 21-24 24m42 28c13-4 24 0 31 10-9 9-20 11-32 4M99 143c-13-7-25-6-35 2 5 12 15 17 30 15m40 35c-2-14 3-24 15-30 7 11 5 22-5 33m13 47c12-8 23-8 33 0-7 11-17 15-31 10m8 8c-5 13-3 24 8 32 9-9 10-20 2-33"/>
    </g>
    <g stroke-width="1.1">
      <path d="M180 38c-7-7-7-15 0-22 7 7 7 15 0 22Zm0 0c7-7 15-7 22 0-7 7-15 7-22 0Zm0 0c7 7 7 15 0 22-7-7-7-15 0-22Zm0 0c-7 7-15 7-22 0 7-7 15-7 22 0Z"/>
      <circle cx="180" cy="38" r="2.2"/>
      <path d="M111 153c-6-6-6-13 0-19 6 6 6 13 0 19Zm0 0c6-6 13-6 19 0-6 6-13 6-19 0Zm0 0c6 6 6 13 0 19-6-6-6-13 0-19Zm0 0c-6 6-13 6-19 0 6-6 13-6 19 0Z"/>
      <circle cx="111" cy="153" r="2"/>
      <path d="M163 246c-5-5-5-11 0-16 5 5 5 11 0 16Zm0 0c5-5 11-5 16 0-5 5-11 5-16 0Zm0 0c5 5 5 11 0 16-5-5-5-11 0-16Zm0 0c-5 5-11 5-16 0 5-5 11-5 16 0Z"/>
      <circle cx="163" cy="246" r="1.8"/>
    </g>
    <g fill="#a17b3e" stroke="none" opacity=".72">
      <circle cx="61" cy="116" r="1.5"/>
      <circle cx="238" cy="86" r="1.5"/>
      <circle cx="185" cy="292" r="1.4"/>
    </g>
  </g>
</svg>
