<svg xmlns="http://www.w3.org/2000/svg" viewBox="0 0 320 320">
  <g fill="none" stroke="#a17b3e" stroke-linecap="round" stroke-linejoin="round">
    <path stroke-width="1.45" d="M28 292C62 252 70 214 112 188c39-24 55-62 70-99 13-33 42-54 105-67"/>
    <path stroke-width="1.05" d="M75 240c-18-2-30-12-39-27m57 9c14-10 28-14 43-12m-15-29c-7-17-6-32 1-46m37-1c18-6 34-3 49 8m-29-48c-1-18 6-33 19-45m34-7c15 4 27 13 36 27"/>
    <g stroke-width="1">
      <path d="M53 230c-10-10-11-20-4-29 11 7 15 17 12 29m28-13c2-15 10-23 23-25 3 13-2 23-15 30m17-43c-12-7-18-16-16-27 13 2 21 9 24 22m39-43c7-13 17-19 30-17-1 13-9 22-24 26m12-49c-8-12-8-23 0-32 11 8 14 19 8 33m43-51c11-8 22-9 32-2-6 12-16 17-30 15"/>
      <path d="M36 213c-8-3-14-9-17-18 9-1 16 3 21 11m171-63c10 0 18 4 24 13-9 5-18 4-26-3m60-84c9 4 15 11 17 21-10 1-18-4-22-13"/>
    </g>
    <g stroke-width="1.1">
      <path d="M129 171c-7-7-7-16 0-23 7 7 7 16 0 23Z"/>
      <path d="M129 171c7-7 16-7 23 0-7 7-16 7-23 0Zm0 0c-7 7-16 7-23 0 7-7 16-7 23 0Zm0 0c7 7 7 16 0 23-7-7-7-16 0-23Z"/>
      <circle cx="129" cy="171" r="2.4"/>
      <path d="M218 72c-6-6-6-13 0-19 6 6 6 13 0 19Zm0 0c6-6 13-6 19 0-6 6-13 6-19 0Zm0 0c6 6 6 13 0 19-6-6-6-13 0-19Zm0 0c-6 6-13 6-19 0 6-6 13-6 19 0Z"/>
      <circle cx="218" cy="72" r="2"/>
    </g>
    <g fill="#a17b3e" stroke="none" opacity=".72">
      <circle cx="73" cy="241" r="1.6"/>
      <circle cx="158" cy="134" r="1.5"/>
      <circle cx="267" cy="34" r="1.4"/>
    </g>
  </g>
</svg>
