<svg xmlns="http://www.w3.org/2000/svg" viewBox="0 0 800 800" aria-hidden="true">
  <g transform="rotate(-5 400 400)">
    <path
      id="labyrinth-route"
      d="M382 748
         C185 755 42 610 48 402
         C53 193 205 40 400 48
         C608 51 754 195 752 398
         C750 596 610 748 418 748
         L416 706
         C580 705 708 580 706 398
         C704 225 580 92 400 94
         C228 96 94 225 94 400
         C96 573 232 703 384 706
         L386 662
         C240 659 137 551 138 402
         C139 253 251 136 400 138
         C547 137 664 249 662 398
         C661 542 552 658 414 662
         L412 618
         C530 616 620 525 618 397
         C617 276 523 180 400 182
         C280 183 181 278 182 400
         C183 516 273 615 388 618
         L390 574
         C294 571 224 496 226 400
         C228 302 302 224 400 226
         C500 225 576 301 574 399
         C573 493 502 571 410 574
         L408 530
         C480 528 532 474 530 398
         C528 327 473 269 400 270
         C329 271 270 328 270 400
         C271 469 322 527 392 530
         L394 486
         C346 483 312 449 314 400
         C316 351 351 312 400 314
         C450 313 488 350 486 399
         C485 446 451 483 406 486
         L404 448
         C429 446 450 429 448 398
         C447 373 427 351 400 352
         C375 353 352 374 352 400
         C353 424 370 445 396 448
         C383 436 384 414 400 400"
      fill="none"
      stroke="#dfc48f"
      stroke-width="6"
      stroke-linecap="round"
      stroke-linejoin="round"
      opacity="0.78"
    />

    <g fill="#dfc48f" opacity="0.64">
      <g transform="translate(184 132) rotate(-34)">
        <ellipse cx="0" cy="0" rx="14" ry="6"/>
        <ellipse cx="28" cy="5" rx="12" ry="5" transform="rotate(36 28 5)"/>
      </g>
      <g transform="translate(613 119) rotate(29)">
        <ellipse cx="0" cy="0" rx="15" ry="6"/>
        <ellipse cx="30" cy="-4" rx="12" ry="5" transform="rotate(-32 30 -4)"/>
      </g>
      <g transform="translate(92 332) rotate(-79)">
        <ellipse cx="0" cy="0" rx="15" ry="6"/>
        <ellipse cx="30" cy="5" rx="12" ry="5" transform="rotate(38 30 5)"/>
      </g>
      <g transform="translate(702 365) rotate(82)">
        <ellipse cx="0" cy="0" rx="15" ry="6"/>
        <ellipse cx="30" cy="-4" rx="12" ry="5" transform="rotate(-37 30 -4)"/>
      </g>
      <g transform="translate(145 605) rotate(-125)">
        <ellipse cx="0" cy="0" rx="14" ry="6"/>
        <ellipse cx="29" cy="5" rx="11" ry="5" transform="rotate(34 29 5)"/>
      </g>
      <g transform="translate(649 623) rotate(125)">
        <ellipse cx="0" cy="0" rx="14" ry="6"/>
        <ellipse cx="29" cy="-5" rx="11" ry="5" transform="rotate(-34 29 -5)"/>
      </g>

      <g transform="translate(280 203) rotate(-18)">
        <ellipse cx="0" cy="0" rx="11" ry="5"/>
        <ellipse cx="23" cy="3" rx="9" ry="4" transform="rotate(35 23 3)"/>
      </g>
      <g transform="translate(522 212) rotate(19)">
        <ellipse cx="0" cy="0" rx="11" ry="5"/>
        <ellipse cx="23" cy="-3" rx="9" ry="4" transform="rotate(-35 23 -3)"/>
      </g>
      <g transform="translate(231 438) rotate(-77)">
        <ellipse cx="0" cy="0" rx="11" ry="5"/>
        <ellipse cx="23" cy="3" rx="9" ry="4" transform="rotate(34 23 3)"/>
      </g>
      <g transform="translate(570 443) rotate(78)">
        <ellipse cx="0" cy="0" rx="11" ry="5"/>
        <ellipse cx="23" cy="-3" rx="9" ry="4" transform="rotate(-34 23 -3)"/>
      </g>

      <g transform="translate(341 313) rotate(-27)">
        <ellipse cx="0" cy="0" rx="8" ry="4"/>
        <ellipse cx="18" cy="3" rx="7" ry="3.5" transform="rotate(38 18 3)"/>
      </g>
      <g transform="translate(459 317) rotate(28)">
        <ellipse cx="0" cy="0" rx="8" ry="4"/>
        <ellipse cx="18" cy="-3" rx="7" ry="3.5" transform="rotate(-38 18 -3)"/>
      </g>
      <g transform="translate(330 255) rotate(-52)">
        <ellipse cx="0" cy="0" rx="9" ry="4"/>
        <ellipse cx="19" cy="3" rx="7" ry="3.5" transform="rotate(35 19 3)"/>
      </g>
      <g transform="translate(478 260) rotate(48)">
        <ellipse cx="0" cy="0" rx="9" ry="4"/>
        <ellipse cx="19" cy="-3" rx="7" ry="3.5" transform="rotate(-35 19 -3)"/>
      </g>
      <g transform="translate(293 365) rotate(-83)">
        <ellipse cx="0" cy="0" rx="8" ry="3.5"/>
        <ellipse cx="17" cy="3" rx="6.5" ry="3" transform="rotate(38 17 3)"/>
      </g>
      <g transform="translate(507 371) rotate(81)">
        <ellipse cx="0" cy="0" rx="8" ry="3.5"/>
        <ellipse cx="17" cy="-3" rx="6.5" ry="3" transform="rotate(-38 17 -3)"/>
      </g>
      <g transform="translate(334 481) rotate(-128)">
        <ellipse cx="0" cy="0" rx="8" ry="3.5"/>
        <ellipse cx="17" cy="3" rx="6.5" ry="3" transform="rotate(36 17 3)"/>
      </g>
      <g transform="translate(467 487) rotate(126)">
        <ellipse cx="0" cy="0" rx="8" ry="3.5"/>
        <ellipse cx="17" cy="-3" rx="6.5" ry="3" transform="rotate(-36 17 -3)"/>
      </g>
    </g>

    <g fill="none" stroke="#dfc48f" stroke-width="3" opacity="0.58">
      <g transform="translate(112 511)">
        <ellipse cx="0" cy="-8" rx="6" ry="10"/>
        <ellipse cx="8" cy="0" rx="10" ry="6"/>
        <ellipse cx="0" cy="8" rx="6" ry="10"/>
        <ellipse cx="-8" cy="0" rx="10" ry="6"/>
        <circle cx="0" cy="0" r="3" fill="#dfc48f" stroke="none"/>
      </g>
      <g transform="translate(676 251) scale(.85)">
        <ellipse cx="0" cy="-8" rx="6" ry="10"/>
        <ellipse cx="8" cy="0" rx="10" ry="6"/>
        <ellipse cx="0" cy="8" rx="6" ry="10"/>
        <ellipse cx="-8" cy="0" rx="10" ry="6"/>
        <circle cx="0" cy="0" r="3" fill="#dfc48f" stroke="none"/>
      </g>
      <g transform="translate(397 398) scale(.72)">
        <ellipse cx="0" cy="-8" rx="6" ry="10"/>
        <ellipse cx="8" cy="0" rx="10" ry="6"/>
        <ellipse cx="0" cy="8" rx="6" ry="10"/>
        <ellipse cx="-8" cy="0" rx="10" ry="6"/>
        <circle cx="0" cy="0" r="3" fill="#dfc48f" stroke="none"/>
      </g>
      <g transform="translate(205 285) scale(.7)">
        <ellipse cx="0" cy="-8" rx="6" ry="10"/>
        <ellipse cx="8" cy="0" rx="10" ry="6"/>
        <ellipse cx="0" cy="8" rx="6" ry="10"/>
        <ellipse cx="-8" cy="0" rx="10" ry="6"/>
        <circle cx="0" cy="0" r="3" fill="#dfc48f" stroke="none"/>
      </g>
      <g transform="translate(594 517) scale(.68)">
        <ellipse cx="0" cy="-8" rx="6" ry="10"/>
        <ellipse cx="8" cy="0" rx="10" ry="6"/>
        <ellipse cx="0" cy="8" rx="6" ry="10"/>
        <ellipse cx="-8" cy="0" rx="10" ry="6"/>
        <circle cx="0" cy="0" r="3" fill="#dfc48f" stroke="none"/>
      </g>
    </g>

    <g fill="none" stroke="#dfc48f" stroke-width="3" opacity="0.42">
      <g transform="translate(247 553) rotate(-12)">
        <rect x="-9" y="-12" width="18" height="25" rx="5"/>
        <rect x="-4" y="-20" width="8" height="8" rx="2"/>
        <line x1="-5" y1="-21" x2="5" y2="-21"/>
        <circle cx="0" cy="2" r="3"/>
      </g>
      <g transform="translate(548 561) rotate(14)">
        <rect x="-12" y="-17" width="24" height="34" rx="2"/>
        <line x1="-7" y1="10" x2="7" y2="10"/>
        <circle cx="0" cy="-3" r="5"/>
      </g>
    </g>

    <g fill="#dfc48f" opacity="0.48">
      <polygon points="298,112 301,119 309,120 303,125 305,133 298,129 291,133 293,125 287,120 295,119"/>
      <polygon points="635,446 638,452 645,453 640,458 641,465 635,461 629,465 630,458 625,453 632,452"/>
      <polygon points="163,470 165,475 171,476 167,480 168,486 163,483 158,486 159,480 155,476 161,475"/>
      <circle cx="520" cy="124" r="3"/>
      <circle cx="675" cy="537" r="2.5"/>
      <circle cx="285" cy="676" r="2.5"/>
    </g>

    <g fill="none" stroke="#dfc48f" stroke-width="2.5" stroke-linecap="round" opacity="0.38">
      <g transform="translate(72 76) rotate(-8)">
        <line x1="-22" y1="22" x2="22" y2="-22"/>
        <ellipse cx="-15" cy="13" rx="10" ry="4" transform="rotate(28 -15 13)" fill="#dfc48f" stroke="none"/>
        <ellipse cx="-4" cy="1" rx="9" ry="4" transform="rotate(-48 -4 1)" fill="#dfc48f" stroke="none"/>
        <ellipse cx="10" cy="-10" rx="9" ry="4" transform="rotate(32 10 -10)" fill="#dfc48f" stroke="none"/>
        <circle cx="23" cy="-23" r="4"/>
      </g>
      <g transform="translate(728 76) rotate(8)">
        <line x1="22" y1="22" x2="-22" y2="-22"/>
        <ellipse cx="15" cy="13" rx="10" ry="4" transform="rotate(-28 15 13)" fill="#dfc48f" stroke="none"/>
        <ellipse cx="4" cy="1" rx="9" ry="4" transform="rotate(48 4 1)" fill="#dfc48f" stroke="none"/>
        <ellipse cx="-10" cy="-10" rx="9" ry="4" transform="rotate(-32 -10 -10)" fill="#dfc48f" stroke="none"/>
        <circle cx="-23" cy="-23" r="4"/>
      </g>
      <g transform="translate(72 724) rotate(8)">
        <line x1="-22" y1="-22" x2="22" y2="22"/>
        <ellipse cx="-15" cy="-13" rx="10" ry="4" transform="rotate(-28 -15 -13)" fill="#dfc48f" stroke="none"/>
        <ellipse cx="-4" cy="-1" rx="9" ry="4" transform="rotate(48 -4 -1)" fill="#dfc48f" stroke="none"/>
        <ellipse cx="10" cy="10" rx="9" ry="4" transform="rotate(-32 10 10)" fill="#dfc48f" stroke="none"/>
        <circle cx="23" cy="23" r="4"/>
      </g>
      <g transform="translate(728 724) rotate(-8)">
        <line x1="22" y1="-22" x2="-22" y2="22"/>
        <ellipse cx="15" cy="-13" rx="10" ry="4" transform="rotate(28 15 -13)" fill="#dfc48f" stroke="none"/>
        <ellipse cx="4" cy="-1" rx="9" ry="4" transform="rotate(-48 4 -1)" fill="#dfc48f" stroke="none"/>
        <ellipse cx="-10" cy="10" rx="9" ry="4" transform="rotate(32 -10 10)" fill="#dfc48f" stroke="none"/>
        <circle cx="-23" cy="23" r="4"/>
      </g>
    </g>
  </g>
</svg>
