<svg xmlns="http://www.w3.org/2000/svg" viewBox="0 0 720 720" role="img" aria-label="Laberinto Soy Autoconocimiento">
  <path fill="#dfc48f" d="M343 75H381V76H343ZM333 76H389V77H333ZM325 77H397V78H325ZM319 78H406V79H319ZM313 79H413V80H313ZM307 80H417V81H307ZM303 81H423V82H303ZM298 82H428V83H298ZM294 83H431V84H294ZM289 84H436V85H289ZM285 85H439V86H285ZM282 86H443V87H282ZM279 87H447V88H279ZM275 88H450V89H275ZM272 89H453V90H272ZM270 90H456V91H270ZM267 91H459V92H267ZM264 92H462V93H264ZM261 93H464V94H261ZM258 94H467V95H258ZM256 95H470V96H256ZM254 96H472V97H254ZM251 97H475V98H251ZM249 98H477V99H249ZM246 99H480V100H246ZM244 100H482V101H244ZM242 101H484V102H242ZM240 102H486V103H240ZM237 103H489V104H237ZM235 104H491V105H235ZM233 105H347V106H233ZM352 105H493V106H352ZM231 106H335V107H231ZM353 106H380V107H353ZM389 106H495V107H389ZM229 107H326V108H229ZM353 107H380V108H353ZM398 107H497V108H398ZM227 108H318V109H227ZM353 108H380V109H353ZM405 108H499V109H405ZM225 109H314V110H225ZM353 109H380V110H353ZM410 109H501V110H410ZM223 110H309V111H223ZM353 110H380V111H353ZM416 110H503V111H416ZM222 111H305V112H222ZM353 111H380V112H353ZM421 111H505V112H421ZM220 112H301V113H220ZM353 112H380V113H353ZM425 112H506V113H425ZM218 113H297V114H218ZM353 113H380V114H353ZM429 113H508V114H429ZM216 114H293V115H216ZM353 114H380V115H353ZM432 114H510V115H432ZM215 115H289V116H215ZM353 115H380V116H353ZM435 115H511V116H435ZM213 116H287V117H213ZM353 116H380V117H353ZM439 116H513V117H439ZM211 117H283V118H211ZM353 117H380V118H353ZM442 117H515V118H442ZM209 118H280V119H209ZM353 118H380V119H353ZM446 118H517V119H446ZM208 119H278V120H208ZM353 119H380V120H353ZM449 119H518V120H449ZM206 120H275V121H206ZM353 120H380V121H353ZM452 120H520V121H452ZM205 121H272V122H205ZM353 121H380V122H353ZM454 121H521V122H454ZM203 122H270V123H203ZM353 122H380V123H353ZM457 122H523V123H457ZM202 123H267V124H202ZM353 123H380V124H353ZM459 123H524V124H459ZM200 124H265V125H200ZM353 124H380V125H353ZM462 124H526V125H462ZM199 125H262V126H199ZM353 125H380V126H353ZM464 125H527V126H464ZM197 126H260V127H197ZM353 126H380V127H353ZM466 126H529V127H466ZM196 127H257V128H196ZM353 127H380V128H353ZM469 127H530V128H469ZM194 128H255V129H194ZM353 128H380V129H353ZM471 128H532V129H471ZM193 129H253V130H193ZM353 129H380V130H353ZM473 129H533V130H473ZM191 130H251V131H191ZM353 130H380V131H353ZM475 130H535V131H475ZM190 131H249V132H190ZM353 131H385V132H353ZM477 131H536V132H477ZM189 132H247V133H189ZM353 132H394V133H353ZM479 132H537V133H479ZM187 133H245V134H187ZM353 133H400V134H353ZM481 133H539V134H481ZM186 134H244V135H186ZM353 134H406V135H353ZM483 134H540V135H483ZM185 135H242V136H185ZM353 135H411V136H353ZM485 135H541V136H485ZM184 136H240V137H184ZM353 136H415V137H353ZM487 136H542V137H487ZM182 137H238V138H182ZM353 137H419V138H353ZM489 137H543V138H489ZM181 138H236V139H181ZM353 138H423V139H353ZM490 138H545V139H490ZM180 139H234V140H180ZM353 139H426V140H353ZM492 139H546V140H492ZM179 140H233V141H179ZM353 140H429V141H353ZM494 140H547V141H494ZM177 141H231V142H177ZM353 141H433V142H353ZM495 141H549V142H495ZM176 142H229V143H176ZM353 142H436V143H353ZM497 142H550V143H497ZM175 143H228V144H175ZM353 143H438V144H353ZM499 143H551V144H499ZM174 144H226V145H174ZM353 144H441V145H353ZM500 144H552V145H500ZM173 145H225V146H173ZM353 145H443V146H353ZM502 145H553V146H502ZM171 146H223V147H171ZM353 146H446V147H353ZM503 146H554V147H503ZM170 147H222V148H170ZM353 147H448V148H353ZM505 147H555V148H505ZM169 148H221V149H169ZM353 148H451V149H353ZM506 148H556V149H506ZM168 149H219V150H168ZM353 149H453V150H353ZM508 149H558V150H508ZM167 150H217V151H167ZM353 150H455V151H353ZM509 150H559V151H509ZM166 151H216V152H166ZM353 151H458V152H353ZM511 151H560V152H511ZM165 152H215V153H165ZM353 152H460V153H353ZM512 152H561V153H512ZM164 153H213V154H164ZM353 153H462V154H353ZM514 153H562V154H514ZM163 154H212V155H163ZM353 154H464V155H353ZM515 154H563V155H515ZM161 155H211V156H161ZM353 155H466V156H353ZM516 155H564V156H516ZM161 156H209V157H161ZM353 156H468V157H353ZM518 156H565V157H518ZM160 157H208V158H160ZM370 157H470V158H370ZM519 157H566V158H519ZM159 158H206V159H159ZM381 158H471V159H381ZM521 158H567V159H521ZM158 159H205V160H158ZM389 159H473V160H389ZM522 159H568V160H522ZM157 160H204V161H157ZM395 160H475V161H395ZM523 160H569V161H523ZM156 161H202V162H156ZM400 161H477V162H400ZM524 161H570V162H524ZM154 162H201V163H154ZM405 162H478V163H405ZM525 162H571V163H525ZM154 163H200V164H154ZM408 163H480V164H408ZM527 163H572V164H527ZM153 164H199V165H153ZM412 164H482V165H412ZM528 164H573V165H528ZM152 165H198V166H152ZM416 165H483V166H416ZM529 165H574V166H529ZM151 166H196V167H151ZM419 166H485V167H419ZM531 166H575V167H531ZM150 167H195V168H150ZM423 167H486V168H423ZM532 167H576V168H532ZM149 168H194V169H149ZM331 168H346V169H331ZM426 168H488V169H426ZM533 168H577V169H533ZM148 169H193V170H148ZM321 169H347V170H321ZM428 169H490V170H428ZM534 169H577V170H534ZM147 170H192V171H147ZM314 170H348V171H314ZM431 170H491V171H431ZM535 170H578V171H535ZM146 171H190V172H146ZM309 171H348V172H309ZM434 171H492V172H434ZM536 171H579V172H536ZM145 172H189V173H145ZM303 172H348V173H303ZM437 172H494V173H437ZM537 172H580V173H537ZM144 173H188V174H144ZM299 173H347V174H299ZM439 173H495V174H439ZM538 173H581V174H538ZM143 174H187V175H143ZM295 174H344V175H295ZM441 174H496V175H441ZM539 174H582V175H539ZM143 175H186V176H143ZM291 175H341V176H291ZM443 175H498V176H443ZM541 175H583V176H541ZM142 176H185V177H142ZM288 176H338V177H288ZM445 176H499V177H445ZM542 176H583V177H542ZM141 177H184V178H141ZM285 177H333V178H285ZM447 177H500V178H447ZM543 177H584V178H543ZM140 178H183V179H140ZM282 178H329V179H282ZM449 178H502V179H449ZM544 178H585V179H544ZM139 179H182V180H139ZM279 179H326V180H279ZM451 179H503V180H451ZM545 179H586V180H545ZM138 180H181V181H138ZM276 180H323V181H276ZM453 180H504V181H453ZM546 180H587V181H546ZM138 181H180V182H138ZM273 181H319V182H273ZM455 181H506V182H455ZM547 181H588V182H547ZM137 182H179V183H137ZM270 182H317V183H270ZM456 182H507V183H456ZM548 182H588V183H548ZM136 183H178V184H136ZM268 183H313V184H268ZM459 183H508V184H459ZM549 183H589V184H549ZM135 184H177V185H135ZM265 184H310V185H265ZM460 184H509V185H460ZM549 184H590V185H549ZM134 185H176V186H134ZM263 185H308V186H263ZM462 185H510V186H462ZM551 185H591V186H551ZM134 186H175V187H134ZM261 186H306V187H261ZM464 186H512V187H464ZM551 186H591V187H551ZM133 187H174V188H133ZM259 187H303V188H259ZM465 187H513V188H465ZM552 187H592V188H552ZM132 188H173V189H132ZM257 188H301V189H257ZM467 188H514V189H467ZM553 188H593V189H553ZM131 189H172V190H131ZM255 189H299V190H255ZM468 189H515V190H468ZM554 189H594V190H554ZM131 190H171V191H131ZM253 190H296V191H253ZM470 190H516V191H470ZM555 190H595V191H555ZM130 191H170V192H130ZM250 191H294V192H250ZM472 191H517V192H472ZM556 191H595V192H556ZM129 192H169V193H129ZM249 192H291V193H249ZM473 192H518V193H473ZM557 192H596V193H557ZM128 193H168V194H128ZM247 193H289V194H247ZM475 193H519V194H475ZM558 193H597V194H558ZM128 194H168V195H128ZM245 194H287V195H245ZM476 194H520V195H476ZM559 194H597V195H559ZM127 195H167V196H127ZM243 195H286V196H243ZM477 195H522V196H477ZM560 195H598V196H560ZM126 196H166V197H126ZM241 196H284V197H241ZM479 196H523V197H479ZM561 196H599V197H561ZM125 197H165V198H125ZM240 197H282V198H240ZM480 197H524V198H480ZM561 197H600V198H561ZM125 198H164V199H125ZM238 198H280V199H238ZM481 198H525V199H481ZM562 198H600V199H562ZM124 199H163V200H124ZM237 199H278V200H237ZM483 199H526V200H483ZM563 199H601V200H563ZM123 200H162V201H123ZM235 200H276V201H235ZM484 200H526V201H484ZM564 200H602V201H564ZM123 201H161V202H123ZM233 201H275V202H233ZM485 201H527V202H485ZM565 201H602V202H565ZM122 202H161V203H122ZM232 202H273V203H232ZM487 202H528V203H487ZM565 202H603V203H565ZM121 203H160V204H121ZM230 203H271V204H230ZM488 203H529V204H488ZM566 203H604V204H566ZM121 204H159V205H121ZM229 204H270V205H229ZM489 204H530V205H489ZM567 204H604V205H567ZM120 205H158V206H120ZM228 205H268V206H228ZM490 205H531V206H490ZM568 205H605V206H568ZM119 206H157V207H119ZM226 206H266V207H226ZM491 206H532V207H491ZM569 206H606V207H569ZM119 207H157V208H119ZM224 207H265V208H224ZM493 207H533V208H493ZM569 207H606V208H569ZM118 208H156V209H118ZM223 208H263V209H223ZM494 208H534V209H494ZM570 208H607V209H570ZM117 209H155V210H117ZM222 209H262V210H222ZM495 209H535V210H495ZM571 209H608V210H571ZM116 210H154V211H116ZM221 210H260V211H221ZM496 210H535V211H496ZM572 210H608V211H572ZM116 211H154V212H116ZM219 211H259V212H219ZM497 211H536V212H497ZM572 211H609V212H572ZM115 212H153V213H115ZM218 212H258V213H218ZM498 212H537V213H498ZM573 212H610V213H573ZM115 213H152V214H115ZM217 213H256V214H217ZM499 213H538V214H499ZM574 213H610V214H574ZM114 214H151V215H114ZM216 214H255V215H216ZM500 214H539V215H500ZM575 214H611V215H575ZM114 215H151V216H114ZM214 215H253V216H214ZM501 215H540V216H501ZM575 215H611V216H575ZM113 216H150V217H113ZM213 216H252V217H213ZM502 216H540V217H502ZM576 216H612V217H576ZM112 217H149V218H112ZM212 217H251V218H212ZM503 217H541V218H503ZM577 217H613V218H577ZM112 218H149V219H112ZM211 218H250V219H211ZM318 218H331V219H318ZM504 218H542V219H504ZM577 218H613V219H577ZM111 219H148V220H111ZM210 219H248V220H210ZM312 219H327V220H312ZM505 219H543V220H505ZM578 219H614V220H578ZM111 220H147V221H111ZM209 220H247V221H209ZM309 220H323V221H309ZM506 220H543V221H506ZM579 220H614V221H579ZM110 221H147V222H110ZM208 221H246V222H208ZM306 221H319V222H306ZM507 221H544V222H507ZM579 221H615V222H579ZM109 222H146V223H109ZM207 222H244V223H207ZM304 222H316V223H304ZM508 222H545V223H508ZM580 222H615V223H580ZM109 223H146V224H109ZM206 223H243V224H206ZM301 223H313V224H301ZM509 223H546V224H509ZM581 223H616V224H581ZM108 224H145V225H108ZM205 224H242V225H205ZM299 224H310V225H299ZM510 224H547V225H510ZM581 224H617V225H581ZM108 225H144V226H108ZM204 225H241V226H204ZM298 225H308V226H298ZM511 225H547V226H511ZM582 225H617V226H582ZM107 226H143V227H107ZM203 226H240V227H203ZM296 226H305V227H296ZM512 226H548V227H512ZM583 226H618V227H583ZM107 227H143V228H107ZM202 227H239V228H202ZM294 227H303V228H294ZM513 227H549V228H513ZM583 227H618V228H583ZM106 228H142V229H106ZM201 228H238V229H201ZM293 228H300V229H293ZM513 228H549V229H513ZM584 228H619V229H584ZM106 229H141V230H106ZM200 229H237V230H200ZM291 229H298V230H291ZM514 229H550V230H514ZM584 229H619V230H584ZM105 230H141V231H105ZM199 230H235V231H199ZM290 230H296V231H290ZM515 230H550V231H515ZM585 230H620V231H585ZM104 231H140V232H104ZM198 231H234V232H198ZM289 231H294V232H289ZM516 231H551V232H516ZM586 231H620V232H586ZM104 232H139V233H104ZM197 232H233V233H197ZM287 232H292V233H287ZM517 232H552V233H517ZM586 232H621V233H586ZM103 233H139V234H103ZM196 233H232V234H196ZM287 233H291V234H287ZM518 233H553V234H518ZM587 233H621V234H587ZM103 234H138V235H103ZM195 234H231V235H195ZM286 234H289V235H286ZM519 234H553V235H519ZM587 234H622V235H587ZM102 235H138V236H102ZM194 235H230V236H194ZM285 235H287V236H285ZM519 235H554V236H519ZM588 235H623V236H588ZM102 236H137V237H102ZM193 236H229V237H193ZM284 236H285V237H284ZM520 236H554V237H520ZM589 236H623V237H589ZM102 237H136V238H102ZM193 237H228V238H193ZM283 237H284V238H283ZM521 237H555V238H521ZM589 237H624V238H589ZM101 238H136V239H101ZM192 238H228V239H192ZM522 238H555V239H522ZM590 238H624V239H590ZM101 239H135V240H101ZM191 239H227V240H191ZM523 239H556V240H523ZM590 239H624V240H590ZM100 240H135V241H100ZM190 240H226V241H190ZM523 240H557V241H523ZM591 240H625V241H591ZM100 241H134V242H100ZM189 241H225V242H189ZM524 241H557V242H524ZM591 241H625V242H591ZM99 242H134V243H99ZM189 242H224V243H189ZM525 242H558V243H525ZM592 242H626V243H592ZM99 243H133V244H99ZM188 243H223V244H188ZM525 243H559V244H525ZM592 243H626V244H592ZM98 244H133V245H98ZM187 244H222V245H187ZM526 244H559V245H526ZM593 244H627V245H593ZM98 245H132V246H98ZM186 245H221V246H186ZM527 245H560V246H527ZM593 245H627V246H593ZM97 246H132V247H97ZM186 246H220V247H186ZM528 246H560V247H528ZM594 246H628V247H594ZM97 247H131V248H97ZM185 247H220V248H185ZM528 247H561V248H528ZM594 247H628V248H594ZM96 248H131V249H96ZM184 248H219V249H184ZM529 248H562V249H529ZM595 248H629V249H595ZM96 249H130V250H96ZM183 249H218V250H183ZM529 249H562V250H529ZM596 249H629V250H596ZM96 250H130V251H96ZM183 250H217V251H183ZM530 250H563V251H530ZM596 250H630V251H596ZM95 251H129V252H95ZM182 251H216V252H182ZM531 251H563V252H531ZM597 251H630V252H597ZM95 252H129V253H95ZM181 252H216V253H181ZM531 252H564V253H531ZM597 252H630V253H597ZM94 253H128V254H94ZM181 253H215V254H181ZM532 253H564V254H532ZM597 253H631V254H597ZM94 254H128V255H94ZM180 254H214V255H180ZM533 254H565V255H533ZM598 254H631V255H598ZM94 255H127V256H94ZM179 255H213V256H179ZM533 255H565V256H533ZM598 255H632V256H598ZM93 256H127V257H93ZM179 256H213V257H179ZM534 256H566V257H534ZM599 256H632V257H599ZM93 257H126V258H93ZM178 257H212V258H178ZM534 257H567V258H534ZM599 257H633V258H599ZM92 258H126V259H92ZM177 258H211V259H177ZM535 258H567V259H535ZM600 258H633V259H600ZM92 259H125V260H92ZM177 259H210V260H177ZM536 259H567V260H536ZM600 259H633V260H600ZM92 260H125V261H92ZM176 260H210V261H176ZM536 260H568V261H536ZM601 260H634V261H601ZM91 261H125V262H91ZM176 261H209V262H176ZM537 261H568V262H537ZM601 261H634V262H601ZM91 262H124V263H91ZM175 262H208V263H175ZM537 262H569V263H537ZM601 262H634V263H601ZM91 263H124V264H91ZM174 263H208V264H174ZM538 263H569V264H538ZM602 263H635V264H602ZM90 264H123V265H90ZM174 264H207V265H174ZM538 264H570V265H538ZM602 264H635V265H602ZM90 265H123V266H90ZM173 265H207V266H173ZM539 265H570V266H539ZM603 265H635V266H603ZM89 266H122V267H89ZM173 266H206V267H173ZM540 266H571V267H540ZM603 266H636V267H603ZM89 267H122V268H89ZM172 267H205V268H172ZM540 267H571V268H540ZM603 267H636V268H603ZM89 268H122V269H89ZM171 268H205V269H171ZM541 268H572V269H541ZM604 268H636V269H604ZM88 269H121V270H88ZM171 269H204V270H171ZM541 269H572V270H541ZM604 269H637V270H604ZM88 270H121V271H88ZM170 270H203V271H170ZM542 270H573V271H542ZM605 270H637V271H605ZM88 271H121V272H88ZM170 271H203V272H170ZM542 271H573V272H542ZM605 271H638V272H605ZM87 272H120V273H87ZM169 272H202V273H169ZM543 272H573V273H543ZM605 272H638V273H605ZM87 273H120V274H87ZM169 273H202V274H169ZM543 273H574V274H543ZM606 273H638V274H606ZM87 274H119V275H87ZM168 274H201V275H168ZM544 274H574V275H544ZM606 274H639V275H606ZM86 275H119V276H86ZM168 275H200V276H168ZM544 275H575V276H544ZM607 275H639V276H607ZM86 276H119V277H86ZM167 276H200V277H167ZM545 276H575V277H545ZM607 276H639V277H607ZM86 277H118V278H86ZM167 277H199V278H167ZM545 277H576V278H545ZM608 277H640V278H608ZM85 278H118V279H85ZM166 278H199V279H166ZM546 278H576V279H546ZM608 278H640V279H608ZM85 279H117V280H85ZM166 279H198V280H166ZM546 279H576V280H546ZM608 279H640V280H608ZM85 280H117V281H85ZM165 280H198V281H165ZM547 280H577V281H547ZM608 280H641V281H608ZM84 281H117V282H84ZM165 281H197V282H165ZM547 281H577V282H547ZM609 281H641V282H609ZM84 282H116V283H84ZM165 282H196V283H165ZM548 282H577V283H548ZM609 282H641V283H609ZM84 283H116V284H84ZM164 283H196V284H164ZM548 283H578V284H548ZM609 283H641V284H609ZM84 284H116V285H84ZM164 284H195V285H164ZM548 284H578V285H548ZM610 284H642V285H610ZM83 285H115V286H83ZM163 285H195V286H163ZM549 285H578V286H549ZM610 285H642V286H610ZM83 286H115V287H83ZM163 286H194V287H163ZM549 286H579V287H549ZM611 286H642V287H611ZM83 287H115V288H83ZM162 287H194V288H162ZM550 287H579V288H550ZM611 287H642V288H611ZM82 288H114V289H82ZM162 288H193V289H162ZM550 288H580V289H550ZM611 288H643V289H611ZM82 289H114V290H82ZM162 289H193V290H162ZM550 289H580V290H550ZM612 289H643V290H612ZM82 290H114V291H82ZM161 290H192V291H161ZM551 290H580V291H551ZM612 290H643V291H612ZM81 291H113V292H81ZM161 291H192V292H161ZM551 291H581V292H551ZM612 291H643V292H612ZM81 292H113V293H81ZM160 292H191V293H160ZM552 292H581V293H552ZM613 292H644V293H613ZM81 293H113V294H81ZM160 293H191V294H160ZM552 293H581V294H552ZM613 293H644V294H613ZM81 294H112V295H81ZM160 294H191V295H160ZM553 294H582V295H553ZM613 294H644V295H613ZM81 295H112V296H81ZM159 295H190V296H159ZM553 295H582V296H553ZM613 295H644V296H613ZM80 296H112V297H80ZM159 296H190V297H159ZM553 296H582V297H553ZM614 296H645V297H614ZM80 297H112V298H80ZM159 297H190V298H159ZM554 297H583V298H554ZM614 297H645V298H614ZM80 298H111V299H80ZM158 298H189V299H158ZM554 298H583V299H554ZM614 298H645V299H614ZM80 299H111V300H80ZM158 299H189V300H158ZM554 299H583V300H554ZM614 299H645V300H614ZM79 300H111V301H79ZM158 300H188V301H158ZM555 300H583V301H555ZM615 300H646V301H615ZM79 301H111V302H79ZM157 301H188V302H157ZM555 301H584V302H555ZM615 301H646V302H615ZM79 302H110V303H79ZM157 302H188V303H157ZM555 302H584V303H555ZM615 302H646V303H615ZM79 303H110V304H79ZM157 303H187V304H157ZM556 303H584V304H556ZM615 303H646V304H615ZM78 304H110V305H78ZM156 304H187V305H156ZM556 304H585V305H556ZM616 304H647V305H616ZM78 305H110V306H78ZM156 305H187V306H156ZM556 305H585V306H556ZM616 305H647V306H616ZM78 306H109V307H78ZM156 306H186V307H156ZM557 306H585V307H557ZM616 306H647V307H616ZM78 307H109V308H78ZM156 307H186V308H156ZM557 307H585V308H557ZM616 307H647V308H616ZM78 308H109V309H78ZM155 308H185V309H155ZM557 308H586V309H557ZM617 308H647V309H617ZM77 309H109V310H77ZM155 309H185V310H155ZM557 309H586V310H557ZM617 309H648V310H617ZM77 310H108V311H77ZM155 310H185V311H155ZM558 310H586V311H558ZM617 310H648V311H617ZM77 311H108V312H77ZM155 311H185V312H155ZM558 311H586V312H558ZM617 311H648V312H617ZM77 312H108V313H77ZM154 312H184V313H154ZM558 312H586V313H558ZM618 312H648V313H618ZM77 313H108V314H77ZM154 313H184V314H154ZM558 313H587V314H558ZM618 313H648V314H618ZM77 314H108V315H77ZM154 314H184V315H154ZM559 314H587V315H559ZM618 314H648V315H618ZM76 315H107V316H76ZM153 315H183V316H153ZM559 315H587V316H559ZM618 315H648V316H618ZM76 316H107V317H76ZM153 316H183V317H153ZM559 316H587V317H559ZM619 316H649V317H619ZM76 317H107V318H76ZM153 317H183V318H153ZM559 317H588V318H559ZM619 317H649V318H619ZM76 318H107V319H76ZM153 318H182V319H153ZM560 318H588V319H560ZM619 318H649V319H619ZM76 319H107V320H76ZM152 319H182V320H152ZM560 319H588V320H560ZM619 319H649V320H619ZM75 320H106V321H75ZM152 320H182V321H152ZM560 320H588V321H560ZM619 320H650V321H619ZM75 321H106V322H75ZM152 321H182V322H152ZM560 321H588V322H560ZM619 321H650V322H619ZM75 322H106V323H75ZM152 322H181V323H152ZM560 322H589V323H560ZM619 322H650V323H619ZM75 323H106V324H75ZM152 323H181V324H152ZM561 323H589V324H561ZM620 323H650V324H620ZM75 324H106V325H75ZM152 324H181V325H152ZM561 324H589V325H561ZM620 324H650V325H620ZM75 325H106V326H75ZM151 325H181V326H151ZM561 325H589V326H561ZM620 325H650V326H620ZM75 326H105V327H75ZM151 326H181V327H151ZM561 326H589V327H561ZM620 326H650V327H620ZM74 327H105V328H74ZM151 327H180V328H151ZM562 327H589V328H562ZM620 327H651V328H620ZM74 328H105V329H74ZM151 328H180V329H151ZM562 328H589V329H562ZM620 328H651V329H620ZM74 329H105V330H74ZM151 329H180V330H151ZM562 329H590V330H562ZM620 329H651V330H620ZM74 330H105V331H74ZM151 330H180V331H151ZM562 330H590V331H562ZM621 330H651V331H621ZM74 331H105V332H74ZM151 331H180V332H151ZM562 331H590V332H562ZM621 331H651V332H621ZM74 332H105V333H74ZM150 332H179V333H150ZM563 332H590V333H563ZM621 332H651V333H621ZM74 333H104V334H74ZM150 333H179V334H150ZM563 333H590V334H563ZM621 333H651V334H621ZM74 334H104V335H74ZM150 334H179V335H150ZM563 334H590V335H563ZM621 334H651V335H621ZM74 335H104V336H74ZM150 335H179V336H150ZM563 335H590V336H563ZM621 335H651V336H621ZM74 336H104V337H74ZM150 336H179V337H150ZM563 336H591V337H563ZM621 336H651V337H621ZM74 337H104V338H74ZM150 337H179V338H150ZM563 337H591V338H563ZM621 337H651V338H621ZM73 338H104V339H73ZM150 338H178V339H150ZM563 338H591V339H563ZM621 338H652V339H621ZM73 339H104V340H73ZM149 339H178V340H149ZM563 339H591V340H563ZM622 339H652V340H622ZM73 340H104V341H73ZM149 340H178V341H149ZM564 340H591V341H564ZM622 340H652V341H622ZM73 341H103V342H73ZM149 341H178V342H149ZM564 341H591V342H564ZM622 341H652V342H622ZM73 342H103V343H73ZM149 342H178V343H149ZM564 342H591V343H564ZM622 342H652V343H622ZM73 343H103V344H73ZM149 343H178V344H149ZM564 343H591V344H564ZM622 343H652V344H622ZM73 344H103V345H73ZM149 344H178V345H149ZM564 344H592V345H564ZM622 344H652V345H622ZM73 345H103V346H73ZM149 345H178V346H149ZM564 345H592V346H564ZM622 345H652V346H622ZM73 346H103V347H73ZM149 346H178V347H149ZM564 346H592V347H564ZM622 346H652V347H622ZM73 347H103V348H73ZM149 347H178V348H149ZM564 347H592V348H564ZM622 347H652V348H622ZM73 348H103V349H73ZM149 348H178V349H149ZM564 348H592V349H564ZM622 348H652V349H622ZM73 349H103V350H73ZM149 349H177V350H149ZM565 349H592V350H565ZM622 349H652V350H622ZM73 350H103V351H73ZM149 350H177V351H149ZM565 350H592V351H565ZM622 350H652V351H622ZM73 351H103V352H73ZM148 351H177V352H148ZM565 351H592V352H565ZM623 351H653V352H623ZM73 352H103V353H73ZM149 352H177V353H149ZM565 352H592V353H565ZM623 352H653V353H623ZM73 353H103V354H73ZM148 353H177V354H148ZM565 353H592V354H565ZM623 353H653V354H623ZM73 354H103V355H73ZM148 354H177V355H148ZM565 354H592V355H565ZM623 354H653V355H623ZM73 355H103V356H73ZM148 355H177V356H148ZM565 355H592V356H565ZM623 355H653V356H623ZM73 356H103V357H73ZM148 356H177V357H148ZM505 356H506V357H505ZM565 356H592V357H565ZM623 356H653V357H623ZM73 357H103V358H73ZM148 357H177V358H148ZM505 357H506V358H505ZM565 357H592V358H565ZM623 357H653V358H623ZM73 358H103V359H73ZM148 358H177V359H148ZM505 358H506V359H505ZM565 358H592V359H565ZM623 358H653V359H623ZM73 359H103V360H73ZM148 359H177V360H148ZM505 359H506V360H505ZM565 359H593V360H565ZM623 359H653V360H623ZM72 360H103V361H72ZM148 360H177V361H148ZM505 360H506V361H505ZM565 360H593V361H565ZM623 360H653V361H623ZM72 361H102V362H72ZM148 361H177V362H148ZM505 361H506V362H505ZM565 361H593V362H565ZM623 361H653V362H623ZM72 362H102V363H72ZM148 362H176V363H148ZM505 362H507V363H505ZM565 362H593V363H565ZM623 362H653V363H623ZM72 363H102V364H72ZM148 363H176V364H148ZM505 363H507V364H505ZM565 363H593V364H565ZM623 363H653V364H623ZM72 364H102V365H72ZM148 364H177V365H148ZM505 364H507V365H505ZM565 364H593V365H565ZM623 364H653V365H623ZM72 365H102V366H72ZM148 365H177V366H148ZM505 365H507V366H505ZM565 365H593V366H565ZM623 365H653V366H623ZM72 366H102V367H72ZM148 366H177V367H148ZM505 366H507V367H505ZM565 366H593V367H565ZM623 366H653V367H623ZM72 367H102V368H72ZM149 367H177V368H149ZM505 367H507V368H505ZM565 367H593V368H565ZM623 367H653V368H623ZM72 368H102V369H72ZM148 368H177V369H148ZM505 368H507V369H505ZM565 368H593V369H565ZM623 368H653V369H623ZM72 369H102V370H72ZM149 369H177V370H149ZM505 369H507V370H505ZM565 369H593V370H565ZM623 369H653V370H623ZM72 370H102V371H72ZM149 370H177V371H149ZM505 370H507V371H505ZM565 370H593V371H565ZM623 370H653V371H623ZM72 371H102V372H72ZM149 371H178V372H149ZM505 371H507V372H505ZM565 371H593V372H565ZM623 371H653V372H623ZM72 372H102V373H72ZM149 372H178V373H149ZM505 372H507V373H505ZM565 372H593V373H565ZM623 372H653V373H623ZM72 373H102V374H72ZM149 373H178V374H149ZM505 373H507V374H505ZM565 373H593V374H565ZM623 373H653V374H623ZM72 374H102V375H72ZM149 374H178V375H149ZM505 374H506V375H505ZM565 374H593V375H565ZM623 374H653V375H623ZM72 375H102V376H72ZM149 375H178V376H149ZM505 375H506V376H505ZM565 375H593V376H565ZM623 375H653V376H623ZM73 376H103V377H73ZM149 376H178V377H149ZM505 376H506V377H505ZM565 376H593V377H565ZM623 376H653V377H623ZM73 377H103V378H73ZM149 377H178V378H149ZM504 377H506V378H504ZM565 377H593V378H565ZM623 377H653V378H623ZM73 378H103V379H73ZM149 378H178V379H149ZM504 378H506V379H504ZM565 378H593V379H565ZM623 378H653V379H623ZM73 379H103V380H73ZM149 379H178V380H149ZM504 379H506V380H504ZM565 379H592V380H565ZM623 379H653V380H623ZM73 380H103V381H73ZM149 380H178V381H149ZM504 380H506V381H504ZM565 380H592V381H565ZM623 380H653V381H623ZM73 381H103V382H73ZM149 381H178V382H149ZM504 381H505V382H504ZM564 381H592V382H564ZM623 381H652V382H623ZM73 382H103V383H73ZM150 382H179V383H150ZM504 382H505V383H504ZM564 382H592V383H564ZM623 382H652V383H623ZM73 383H103V384H73ZM150 383H179V384H150ZM504 383H505V384H504ZM564 383H592V384H564ZM622 383H652V384H622ZM73 384H103V385H73ZM150 384H179V385H150ZM503 384H505V385H503ZM564 384H592V385H564ZM622 384H652V385H622ZM73 385H103V386H73ZM150 385H179V386H150ZM503 385H505V386H503ZM564 385H592V386H564ZM622 385H652V386H622ZM73 386H103V387H73ZM150 386H179V387H150ZM503 386H504V387H503ZM564 386H592V387H564ZM622 386H652V387H622ZM73 387H103V388H73ZM150 387H179V388H150ZM503 387H504V388H503ZM564 387H592V388H564ZM622 387H652V388H622ZM73 388H103V389H73ZM150 388H179V389H150ZM503 388H504V389H503ZM564 388H592V389H564ZM622 388H652V389H622ZM73 389H103V390H73ZM150 389H179V390H150ZM503 389H504V390H503ZM564 389H592V390H564ZM622 389H652V390H622ZM73 390H103V391H73ZM150 390H180V391H150ZM502 390H503V391H502ZM564 390H592V391H564ZM622 390H652V391H622ZM73 391H103V392H73ZM151 391H180V392H151ZM502 391H503V392H502ZM564 391H592V392H564ZM622 391H652V392H622ZM73 392H103V393H73ZM151 392H180V393H151ZM502 392H503V393H502ZM564 392H591V393H564ZM622 392H652V393H622ZM73 393H103V394H73ZM151 393H180V394H151ZM502 393H503V394H502ZM563 393H591V394H563ZM622 393H652V394H622ZM74 394H103V395H74ZM151 394H180V395H151ZM501 394H502V395H501ZM563 394H591V395H563ZM622 394H651V395H622ZM74 395H104V396H74ZM151 395H181V396H151ZM501 395H502V396H501ZM563 395H591V396H563ZM622 395H651V396H622ZM74 396H104V397H74ZM151 396H181V397H151ZM501 396H502V397H501ZM563 396H591V397H563ZM622 396H651V397H622ZM74 397H104V398H74ZM152 397H181V398H152ZM563 397H591V398H563ZM621 397H651V398H621ZM74 398H104V399H74ZM152 398H181V399H152ZM500 398H501V399H500ZM563 398H591V399H563ZM621 398H651V399H621ZM74 399H104V400H74ZM152 399H181V400H152ZM500 399H501V400H500ZM563 399H590V400H563ZM621 399H651V400H621ZM74 400H104V401H74ZM152 400H181V401H152ZM500 400H501V401H500ZM562 400H590V401H562ZM621 400H651V401H621ZM74 401H104V402H74ZM152 401H182V402H152ZM562 401H590V402H562ZM621 401H651V402H621ZM74 402H105V403H74ZM153 402H182V403H153ZM499 402H500V403H499ZM562 402H590V403H562ZM621 402H651V403H621ZM74 403H105V404H74ZM153 403H182V404H153ZM499 403H500V404H499ZM562 403H590V404H562ZM621 403H650V404H621ZM75 404H105V405H75ZM153 404H182V405H153ZM562 404H590V405H562ZM621 404H650V405H621ZM75 405H105V406H75ZM153 405H183V406H153ZM498 405H499V406H498ZM562 405H590V406H562ZM621 405H650V406H621ZM75 406H105V407H75ZM154 406H183V407H154ZM498 406H499V407H498ZM561 406H589V407H561ZM620 406H650V407H620ZM75 407H105V408H75ZM154 407H183V408H154ZM561 407H589V408H561ZM620 407H650V408H620ZM75 408H105V409H75ZM154 408H183V409H154ZM497 408H498V409H497ZM561 408H589V409H561ZM620 408H650V409H620ZM75 409H106V410H75ZM154 409H183V410H154ZM561 409H589V410H561ZM620 409H650V410H620ZM75 410H106V411H75ZM154 410H184V411H154ZM561 410H589V411H561ZM620 410H649V411H620ZM75 411H106V412H75ZM155 411H184V412H155ZM560 411H588V412H560ZM620 411H649V412H620ZM76 412H106V413H76ZM155 412H184V413H155ZM560 412H588V413H560ZM620 412H649V413H620ZM76 413H106V414H76ZM155 413H185V414H155ZM495 413H496V414H495ZM560 413H588V414H560ZM619 413H649V414H619ZM76 414H106V415H76ZM156 414H185V415H156ZM560 414H588V415H560ZM619 414H649V415H619ZM76 415H106V416H76ZM156 415H185V416H156ZM560 415H588V416H560ZM619 415H648V416H619ZM76 416H107V417H76ZM156 416H186V417H156ZM559 416H587V417H559ZM619 416H648V417H619ZM77 417H107V418H77ZM156 417H186V418H156ZM559 417H587V418H559ZM619 417H648V418H619ZM77 418H107V419H77ZM157 418H186V419H157ZM559 418H587V419H559ZM619 418H648V419H619ZM77 419H107V420H77ZM157 419H187V420H157ZM559 419H587V420H559ZM619 419H648V420H619ZM77 420H107V421H77ZM157 420H187V421H157ZM558 420H587V421H558ZM618 420H647V421H618ZM77 421H107V422H77ZM158 421H187V422H158ZM558 421H586V422H558ZM618 421H647V422H618ZM78 422H108V423H78ZM158 422H188V423H158ZM558 422H586V423H558ZM618 422H647V423H618ZM78 423H108V424H78ZM158 423H188V424H158ZM558 423H586V424H558ZM618 423H647V424H618ZM78 424H108V425H78ZM159 424H188V425H159ZM557 424H586V425H557ZM618 424H647V425H618ZM78 425H108V426H78ZM159 425H189V426H159ZM557 425H585V426H557ZM617 425H647V426H617ZM78 426H109V427H78ZM159 426H189V427H159ZM557 426H585V427H557ZM617 426H646V427H617ZM79 427H109V428H79ZM160 427H189V428H160ZM556 427H585V428H556ZM617 427H646V428H617ZM79 428H109V429H79ZM160 428H190V429H160ZM556 428H584V429H556ZM617 428H646V429H617ZM79 429H109V430H79ZM160 429H190V430H160ZM556 429H584V430H556ZM617 429H645V430H617ZM79 430H109V431H79ZM161 430H191V431H161ZM556 430H584V431H556ZM616 430H645V431H616ZM80 431H110V432H80ZM161 431H191V432H161ZM555 431H584V432H555ZM616 431H645V432H616ZM80 432H110V433H80ZM161 432H192V433H161ZM555 432H583V433H555ZM616 432H645V433H616ZM80 433H110V434H80ZM162 433H192V434H162ZM555 433H583V434H555ZM616 433H645V434H616ZM80 434H110V435H80ZM162 434H192V435H162ZM554 434H583V435H554ZM615 434H644V435H615ZM80 435H111V436H80ZM163 435H193V436H163ZM554 435H583V436H554ZM615 435H644V436H615ZM81 436H111V437H81ZM163 436H193V437H163ZM554 436H582V437H554ZM615 436H644V437H615ZM81 437H111V438H81ZM163 437H194V438H163ZM553 437H582V438H553ZM615 437H644V438H615ZM81 438H111V439H81ZM163 438H194V439H163ZM553 438H582V439H553ZM614 438H643V439H614ZM81 439H112V440H81ZM164 439H195V440H164ZM553 439H581V440H553ZM614 439H643V440H614ZM82 440H112V441H82ZM164 440H195V441H164ZM552 440H581V441H552ZM614 440H643V441H614ZM82 441H112V442H82ZM165 441H195V442H165ZM552 441H580V442H552ZM614 441H643V442H614ZM82 442H113V443H82ZM165 442H196V443H165ZM552 442H580V443H552ZM613 442H642V443H613ZM82 443H113V444H82ZM166 443H196V444H166ZM551 443H580V444H551ZM613 443H642V444H613ZM84 444H113V445H84ZM166 444H197V445H166ZM551 444H579V445H551ZM613 444H642V445H613ZM83 445H113V446H83ZM166 445H197V446H166ZM550 445H579V446H550ZM612 445H642V446H612ZM83 446H114V447H83ZM167 446H198V447H167ZM550 446H579V447H550ZM612 446H641V447H612ZM84 447H114V448H84ZM167 447H198V448H167ZM549 447H578V448H549ZM612 447H641V448H612ZM84 448H114V449H84ZM168 448H199V449H168ZM549 448H578V449H549ZM612 448H641V449H612ZM84 449H115V450H84ZM168 449H199V450H168ZM549 449H578V450H549ZM611 449H641V450H611ZM84 450H115V451H84ZM169 450H200V451H169ZM548 450H577V451H548ZM611 450H640V451H611ZM85 451H115V452H85ZM169 451H201V452H169ZM548 451H577V452H548ZM611 451H640V452H611ZM85 452H116V453H85ZM170 452H201V453H170ZM547 452H576V453H547ZM610 452H640V453H610ZM85 453H116V454H85ZM170 453H202V454H170ZM547 453H576V454H547ZM610 453H639V454H610ZM86 454H116V455H86ZM171 454H202V455H171ZM546 454H576V455H546ZM610 454H639V455H610ZM86 455H117V456H86ZM171 455H203V456H171ZM546 455H575V456H546ZM609 455H639V456H609ZM86 456H117V457H86ZM172 456H204V457H172ZM469 456H470V457H469ZM545 456H575V457H545ZM609 456H638V457H609ZM86 457H117V458H86ZM172 457H204V458H172ZM468 457H469V458H468ZM545 457H574V458H545ZM609 457H638V458H609ZM87 458H118V459H87ZM173 458H205V459H173ZM467 458H468V459H467ZM544 458H574V459H544ZM608 458H638V459H608ZM87 459H118V460H87ZM173 459H205V460H173ZM466 459H467V460H466ZM544 459H573V460H544ZM608 459H637V460H608ZM87 460H118V461H87ZM174 460H206V461H174ZM465 460H466V461H465ZM543 460H573V461H543ZM608 460H637V461H608ZM88 461H119V462H88ZM174 461H207V462H174ZM543 461H572V462H543ZM607 461H637V462H607ZM88 462H119V463H88ZM175 462H207V463H175ZM464 462H465V463H464ZM542 462H572V463H542ZM607 462H636V463H607ZM88 463H119V464H88ZM175 463H208V464H175ZM463 463H464V464H463ZM542 463H571V464H542ZM606 463H636V464H606ZM89 464H120V465H89ZM176 464H209V465H176ZM462 464H463V465H462ZM541 464H571V465H541ZM606 464H636V465H606ZM89 465H120V466H89ZM177 465H209V466H177ZM460 465H462V466H460ZM541 465H571V466H541ZM606 465H635V466H606ZM89 466H121V467H89ZM177 466H210V467H177ZM459 466H461V467H459ZM540 466H570V467H540ZM605 466H635V467H605ZM90 467H121V468H90ZM178 467H211V468H178ZM458 467H460V468H458ZM540 467H569V468H540ZM605 467H634V468H605ZM90 468H122V469H90ZM178 468H211V469H178ZM457 468H459V469H457ZM539 468H569V469H539ZM605 468H634V469H605ZM90 469H122V470H90ZM179 469H212V470H179ZM456 469H458V470H456ZM539 469H569V470H539ZM604 469H634V470H604ZM91 470H123V471H91ZM180 470H213V471H180ZM455 470H457V471H455ZM538 470H568V471H538ZM604 470H633V471H604ZM91 471H123V472H91ZM180 471H214V472H180ZM454 471H456V472H454ZM537 471H567V472H537ZM603 471H633V472H603ZM92 472H123V473H92ZM181 472H214V473H181ZM453 472H455V473H453ZM537 472H567V473H537ZM603 472H633V473H603ZM92 473H124V474H92ZM182 473H215V474H182ZM451 473H454V474H451ZM536 473H566V474H536ZM602 473H632V474H602ZM92 474H124V475H92ZM182 474H216V475H182ZM450 474H453V475H450ZM536 474H566V475H536ZM602 474H632V475H602ZM93 475H124V476H93ZM183 475H217V476H183ZM449 475H452V476H449ZM535 475H565V476H535ZM601 475H631V476H601ZM93 476H125V477H93ZM184 476H218V477H184ZM447 476H451V477H447ZM534 476H564V477H534ZM601 476H631V477H601ZM94 477H125V478H94ZM184 477H219V478H184ZM446 477H449V478H446ZM534 477H564V478H534ZM601 477H631V478H601ZM94 478H126V479H94ZM185 478H219V479H185ZM445 478H448V479H445ZM533 478H563V479H533ZM600 478H630V479H600ZM94 479H126V480H94ZM186 479H220V480H186ZM443 479H447V480H443ZM532 479H563V480H532ZM600 479H630V480H600ZM95 480H127V481H95ZM186 480H221V481H186ZM442 480H446V481H442ZM531 480H562V481H531ZM599 480H629V481H599ZM95 481H127V482H95ZM187 481H222V482H187ZM440 481H445V482H440ZM531 481H561V482H531ZM599 481H629V482H599ZM96 482H128V483H96ZM187 482H223V483H187ZM439 482H444V483H439ZM530 482H561V483H530ZM598 482H628V483H598ZM96 483H128V484H96ZM188 483H223V484H188ZM437 483H443V484H437ZM530 483H560V484H530ZM598 483H628V484H598ZM97 484H129V485H97ZM189 484H224V485H189ZM436 484H441V485H436ZM529 484H559V485H529ZM597 484H628V485H597ZM97 485H129V486H97ZM190 485H225V486H190ZM434 485H440V486H434ZM528 485H559V486H528ZM597 485H627V486H597ZM97 486H129V487H97ZM190 486H226V487H190ZM432 486H439V487H432ZM527 486H558V487H527ZM596 486H627V487H596ZM98 487H130V488H98ZM191 487H227V488H191ZM430 487H437V488H430ZM527 487H557V488H527ZM596 487H626V488H596ZM98 488H131V489H98ZM192 488H228V489H192ZM429 488H436V489H429ZM526 488H557V489H526ZM595 488H626V489H595ZM99 489H131V490H99ZM193 489H229V490H193ZM427 489H435V490H427ZM525 489H556V490H525ZM595 489H626V490H595ZM99 490H132V491H99ZM193 490H230V491H193ZM425 490H433V491H425ZM524 490H555V491H524ZM595 490H625V491H595ZM100 491H132V492H100ZM194 491H231V492H194ZM423 491H431V492H423ZM524 491H555V492H524ZM594 491H625V492H594ZM100 492H133V493H100ZM195 492H232V493H195ZM421 492H430V493H421ZM523 492H554V493H523ZM593 492H624V493H593ZM101 493H133V494H101ZM196 493H233V494H196ZM418 493H429V494H418ZM522 493H553V494H522ZM593 493H624V494H593ZM101 494H134V495H101ZM197 494H234V495H197ZM416 494H427V495H416ZM521 494H552V495H521ZM592 494H623V495H592ZM102 495H134V496H102ZM197 495H235V496H197ZM413 495H425V496H413ZM520 495H551V496H520ZM592 495H623V496H592ZM102 496H135V497H102ZM198 496H236V497H198ZM411 496H423V497H411ZM519 496H551V497H519ZM591 496H622V497H591ZM103 497H135V498H103ZM199 497H237V498H199ZM408 497H421V498H408ZM518 497H550V498H518ZM591 497H622V498H591ZM103 498H136V499H103ZM200 498H238V499H200ZM405 498H420V499H405ZM517 498H549V499H517ZM590 498H621V499H590ZM104 499H136V500H104ZM201 499H240V500H201ZM402 499H418V500H402ZM517 499H548V500H517ZM590 499H621V500H590ZM104 500H137V501H104ZM202 500H241V501H202ZM398 500H416V501H398ZM516 500H548V501H516ZM589 500H620V501H589ZM105 501H138V502H105ZM202 501H242V502H202ZM394 501H414V502H394ZM515 501H547V502H515ZM588 501H620V502H588ZM105 502H138V503H105ZM203 502H243V503H203ZM390 502H412V503H390ZM514 502H546V503H514ZM588 502H619V503H588ZM106 503H139V504H106ZM204 503H244V504H204ZM384 503H410V504H384ZM513 503H545V504H513ZM587 503H619V504H587ZM106 504H139V505H106ZM205 504H245V505H205ZM377 504H407V505H377ZM512 504H544V505H512ZM587 504H618V505H587ZM107 505H140V506H107ZM206 505H247V506H206ZM354 505H405V506H354ZM511 505H543V506H511ZM586 505H618V506H586ZM107 506H140V507H107ZM207 506H248V507H207ZM354 506H403V507H354ZM510 506H543V507H510ZM586 506H617V507H586ZM108 507H141V508H108ZM208 507H249V508H208ZM354 507H400V508H354ZM509 507H542V508H509ZM585 507H617V508H585ZM108 508H142V509H108ZM209 508H251V509H209ZM354 508H397V509H354ZM508 508H541V509H508ZM584 508H616V509H584ZM109 509H142V510H109ZM210 509H252V510H210ZM354 509H394V510H354ZM507 509H540V510H507ZM584 509H616V510H584ZM109 510H143V511H109ZM211 510H253V511H211ZM354 510H391V511H354ZM506 510H539V511H506ZM583 510H615V511H583ZM110 511H144V512H110ZM212 511H255V512H212ZM354 511H388V512H354ZM505 511H538V512H505ZM582 511H614V512H582ZM111 512H144V513H111ZM213 512H256V513H213ZM354 512H384V513H354ZM504 512H537V513H504ZM582 512H614V513H582ZM111 513H145V514H111ZM214 513H258V514H214ZM354 513H382V514H354ZM503 513H536V514H503ZM581 513H613V514H581ZM112 514H146V515H112ZM215 514H259V515H215ZM354 514H380V515H354ZM502 514H535V515H502ZM581 514H613V515H581ZM113 515H146V516H113ZM216 515H261V516H216ZM354 515H380V516H354ZM500 515H534V516H500ZM580 515H612V516H580ZM113 516H147V517H113ZM217 516H262V517H217ZM354 516H380V517H354ZM499 516H533V517H499ZM579 516H612V517H579ZM114 517H148V518H114ZM218 517H264V518H218ZM354 517H380V518H354ZM498 517H532V518H498ZM579 517H611V518H579ZM114 518H148V519H114ZM219 518H266V519H219ZM354 518H380V519H354ZM497 518H531V519H497ZM578 518H610V519H578ZM115 519H149V520H115ZM220 519H267V520H220ZM354 519H380V520H354ZM496 519H530V520H496ZM577 519H610V520H577ZM116 520H150V521H116ZM221 520H222V521H221ZM223 520H269V521H223ZM354 520H380V521H354ZM494 520H529V521H494ZM577 520H609V521H577ZM116 521H150V522H116ZM222 521H223V522H222ZM224 521H271V522H224ZM354 521H380V522H354ZM493 521H528V522H493ZM576 521H608V522H576ZM117 522H151V523H117ZM224 522H273V523H224ZM354 522H380V523H354ZM492 522H526V523H492ZM575 522H608V523H575ZM118 523H152V524H118ZM225 523H275V524H225ZM354 523H380V524H354ZM491 523H525V524H491ZM574 523H607V524H574ZM118 524H152V525H118ZM226 524H277V525H226ZM354 524H380V525H354ZM489 524H524V525H489ZM574 524H607V525H574ZM119 525H153V526H119ZM227 525H279V526H227ZM354 525H380V526H354ZM488 525H523V526H488ZM573 525H606V526H573ZM120 526H154V527H120ZM228 526H281V527H228ZM354 526H380V527H354ZM487 526H522V527H487ZM572 526H605V527H572ZM120 527H155V528H120ZM229 527H283V528H229ZM354 527H380V528H354ZM485 527H520V528H485ZM571 527H605V528H571ZM121 528H155V529H121ZM231 528H285V529H231ZM354 528H380V529H354ZM484 528H519V529H484ZM571 528H604V529H571ZM122 529H156V530H122ZM232 529H288V530H232ZM354 529H380V530H354ZM483 529H518V530H483ZM570 529H603V530H570ZM122 530H157V531H122ZM234 530H290V531H234ZM354 530H380V531H354ZM481 530H517V531H481ZM569 530H603V531H569ZM123 531H158V532H123ZM235 531H293V532H235ZM354 531H380V532H354ZM480 531H515V532H480ZM568 531H602V532H568ZM123 532H159V533H123ZM236 532H296V533H236ZM354 532H380V533H354ZM478 532H514V533H478ZM567 532H602V533H567ZM124 533H159V534H124ZM238 533H299V534H238ZM354 533H380V534H354ZM477 533H512V534H477ZM567 533H601V534H567ZM125 534H160V535H125ZM239 534H302V535H239ZM354 534H380V535H354ZM475 534H511V535H475ZM566 534H600V535H566ZM126 535H161V536H126ZM240 535H307V536H240ZM354 535H380V536H354ZM474 535H510V536H474ZM565 535H600V536H565ZM126 536H162V537H126ZM242 536H310V537H242ZM355 536H380V537H355ZM472 536H508V537H472ZM564 536H599V537H564ZM127 537H162V538H127ZM243 537H314V538H243ZM355 537H380V538H355ZM470 537H507V538H470ZM563 537H598V538H563ZM128 538H163V539H128ZM245 538H318V539H245ZM355 538H380V539H355ZM469 538H505V539H469ZM563 538H598V539H563ZM129 539H164V540H129ZM246 539H323V540H246ZM354 539H380V540H354ZM467 539H503V540H467ZM562 539H597V540H562ZM129 540H165V541H129ZM248 540H329V541H248ZM355 540H380V541H355ZM465 540H501V541H465ZM561 540H596V541H561ZM130 541H166V542H130ZM250 541H331V542H250ZM355 541H380V542H355ZM463 541H500V542H463ZM560 541H595V542H560ZM131 542H167V543H131ZM251 542H332V543H251ZM355 542H380V543H355ZM462 542H498V543H462ZM559 542H595V543H559ZM133 543H167V544H133ZM253 543H332V544H253ZM355 543H380V544H355ZM460 543H496V544H460ZM558 543H594V544H558ZM132 544H169V545H132ZM254 544H332V545H254ZM355 544H380V545H355ZM458 544H494V545H458ZM557 544H593V545H557ZM133 545H168V546H133ZM256 545H332V546H256ZM355 545H380V546H355ZM456 545H492V546H456ZM557 545H592V546H557ZM134 546H171V547H134ZM258 546H332V547H258ZM355 546H380V547H355ZM454 546H491V547H454ZM556 546H591V547H556ZM135 547H171V548H135ZM260 547H332V548H260ZM355 547H380V548H355ZM452 547H489V548H452ZM555 547H591V548H555ZM136 548H172V549H136ZM262 548H332V549H262ZM355 548H380V549H355ZM449 548H487V549H449ZM554 548H590V549H554ZM136 549H173V550H136ZM264 549H332V550H264ZM355 549H380V550H355ZM447 549H485V550H447ZM553 549H589V550H553ZM137 550H174V551H137ZM266 550H332V551H266ZM355 550H380V551H355ZM444 550H482V551H444ZM552 550H588V551H552ZM138 551H175V552H138ZM268 551H332V552H268ZM355 551H380V552H355ZM442 551H480V552H442ZM551 551H588V552H551ZM139 552H176V553H139ZM270 552H332V553H270ZM355 552H380V553H355ZM439 552H477V553H439ZM550 552H587V553H550ZM140 553H177V554H140ZM272 553H332V554H272ZM355 553H380V554H355ZM436 553H475V554H436ZM549 553H586V554H549ZM140 554H178V555H140ZM274 554H332V555H274ZM355 554H380V555H355ZM433 554H473V555H433ZM548 554H585V555H548ZM141 555H179V556H141ZM276 555H332V556H276ZM355 555H380V556H355ZM430 555H470V556H430ZM547 555H584V556H547ZM142 556H180V557H142ZM279 556H331V557H279ZM355 556H380V557H355ZM427 556H467V557H427ZM546 556H583V557H546ZM143 557H181V558H143ZM281 557H331V558H281ZM355 557H380V558H355ZM424 557H464V558H424ZM545 557H583V558H545ZM144 558H182V559H144ZM284 558H332V559H284ZM355 558H380V559H355ZM419 558H461V559H419ZM544 558H582V559H544ZM145 559H183V560H145ZM286 559H331V560H286ZM355 559H380V560H355ZM417 559H458V560H417ZM543 559H581V560H543ZM146 560H184V561H146ZM289 560H331V561H289ZM355 560H379V561H355ZM415 560H454V561H415ZM542 560H580V561H542ZM147 561H185V562H147ZM293 561H332V562H293ZM355 561H379V562H355ZM414 561H451V562H414ZM541 561H579V562H541ZM147 562H186V563H147ZM296 562H331V563H296ZM355 562H379V563H355ZM413 562H447V563H413ZM540 562H579V563H540ZM148 563H187V564H148ZM299 563H331V564H299ZM355 563H379V564H355ZM413 563H443V564H413ZM539 563H578V564H539ZM149 564H189V565H149ZM302 564H331V565H302ZM355 564H379V565H355ZM413 564H438V565H413ZM537 564H577V565H537ZM150 565H190V566H150ZM306 565H331V566H306ZM355 565H379V566H355ZM413 565H432V566H413ZM536 565H576V566H536ZM151 566H191V567H151ZM307 566H331V567H307ZM355 566H379V567H355ZM414 566H426V567H414ZM535 566H575V567H535ZM152 567H192V568H152ZM307 567H331V568H307ZM355 567H379V568H355ZM534 567H574V568H534ZM153 568H193V569H153ZM307 568H331V569H307ZM355 568H379V569H355ZM533 568H573V569H533ZM154 569H194V570H154ZM307 569H331V570H307ZM355 569H379V570H355ZM532 569H572V570H532ZM155 570H195V571H155ZM307 570H331V571H307ZM355 570H379V571H355ZM530 570H571V571H530ZM156 571H196V572H156ZM307 571H331V572H307ZM355 571H379V572H355ZM529 571H570V572H529ZM157 572H198V573H157ZM307 572H331V573H307ZM355 572H379V573H355ZM528 572H569V573H528ZM158 573H199V574H158ZM307 573H331V574H307ZM355 573H379V574H355ZM526 573H568V574H526ZM159 574H200V575H159ZM307 574H331V575H307ZM355 574H379V575H355ZM525 574H567V575H525ZM160 575H201V576H160ZM307 575H331V576H307ZM355 575H379V576H355ZM524 575H566V576H524ZM161 576H203V577H161ZM307 576H331V577H307ZM355 576H379V577H355ZM523 576H565V577H523ZM162 577H204V578H162ZM307 577H331V578H307ZM355 577H379V578H355ZM521 577H564V578H521ZM163 578H205V579H163ZM307 578H331V579H307ZM355 578H379V579H355ZM520 578H563V579H520ZM164 579H206V580H164ZM307 579H331V580H307ZM355 579H379V580H355ZM519 579H561V580H519ZM165 580H208V581H165ZM307 580H331V581H307ZM355 580H380V581H355ZM517 580H561V581H517ZM166 581H209V582H166ZM307 581H331V582H307ZM355 581H380V582H355ZM516 581H560V582H516ZM167 582H211V583H167ZM307 582H331V583H307ZM355 582H379V583H355ZM514 582H559V583H514ZM168 583H212V584H168ZM307 583H331V584H307ZM355 583H380V584H355ZM513 583H558V584H513ZM169 584H214V585H169ZM307 584H331V585H307ZM355 584H379V585H355ZM511 584H557V585H511ZM170 585H215V586H170ZM307 585H331V586H307ZM355 585H379V586H355ZM510 585H556V586H510ZM172 586H216V587H172ZM307 586H331V587H307ZM355 586H379V587H355ZM509 586H555V587H509ZM173 587H218V588H173ZM307 587H331V588H307ZM355 587H379V588H355ZM507 587H553V588H507ZM174 588H220V589H174ZM307 588H331V589H307ZM355 588H379V589H355ZM505 588H552V589H505ZM175 589H221V590H175ZM307 589H331V590H307ZM355 589H379V590H355ZM504 589H551V590H504ZM176 590H223V591H176ZM307 590H331V591H307ZM355 590H379V591H355ZM502 590H549V591H502ZM177 591H224V592H177ZM307 591H331V592H307ZM355 591H379V592H355ZM500 591H548V592H500ZM179 592H226V593H179ZM307 592H331V593H307ZM355 592H379V593H355ZM499 592H547V593H499ZM180 593H227V594H180ZM307 593H331V594H307ZM355 593H379V594H355ZM497 593H546V594H497ZM181 594H229V595H181ZM307 594H331V595H307ZM355 594H379V595H355ZM496 594H545V595H496ZM182 595H231V596H182ZM307 595H331V596H307ZM355 595H379V596H355ZM494 595H543V596H494ZM183 596H232V597H183ZM307 596H331V597H307ZM355 596H379V597H355ZM492 596H542V597H492ZM185 597H234V598H185ZM307 597H331V598H307ZM355 597H379V598H355ZM490 597H541V598H490ZM186 598H236V599H186ZM307 598H331V599H307ZM355 598H379V599H355ZM489 598H539V599H489ZM187 599H188V600H187ZM189 599H238V600H189ZM307 599H331V600H307ZM355 599H379V600H355ZM487 599H538V600H487ZM189 600H239V601H189ZM307 600H332V601H307ZM355 600H379V601H355ZM485 600H537V601H485ZM190 601H241V602H190ZM307 601H331V602H307ZM355 601H379V602H355ZM483 601H536V602H483ZM191 602H243V603H191ZM307 602H331V603H307ZM355 602H379V603H355ZM481 602H534V603H481ZM192 603H245V604H192ZM307 603H331V604H307ZM355 603H379V604H355ZM480 603H533V604H480ZM194 604H247V605H194ZM307 604H331V605H307ZM355 604H379V605H355ZM478 604H532V605H478ZM195 605H249V606H195ZM307 605H331V606H307ZM355 605H380V606H355ZM476 605H530V606H476ZM197 606H251V607H197ZM307 606H331V607H307ZM355 606H379V607H355ZM474 606H529V607H474ZM198 607H253V608H198ZM307 607H331V608H307ZM355 607H380V608H355ZM471 607H527V608H471ZM199 608H255V609H199ZM307 608H331V609H307ZM355 608H379V609H355ZM469 608H526V609H469ZM201 609H257V610H201ZM307 609H331V610H307ZM355 609H379V610H355ZM467 609H525V610H467ZM202 610H260V611H202ZM307 610H331V611H307ZM355 610H379V611H355ZM465 610H523V611H465ZM204 611H262V612H204ZM307 611H331V612H307ZM355 611H379V612H355ZM463 611H522V612H463ZM206 612H265V613H206ZM307 612H331V613H307ZM355 612H379V613H355ZM460 612H520V613H460ZM207 613H267V614H207ZM307 613H331V614H307ZM355 613H380V614H355ZM458 613H519V614H458ZM209 614H269V615H209ZM307 614H331V615H307ZM355 614H380V615H355ZM455 614H517V615H455ZM210 615H272V616H210ZM307 615H331V616H307ZM355 615H380V616H355ZM452 615H516V616H452ZM212 616H275V617H212ZM307 616H331V617H307ZM355 616H380V617H355ZM449 616H514V617H449ZM214 617H277V618H214ZM307 617H331V618H307ZM355 617H380V618H355ZM446 617H512V618H446ZM215 618H280V619H215ZM307 618H331V619H307ZM355 618H380V619H355ZM444 618H510V619H444ZM217 619H283V620H217ZM307 619H331V620H307ZM355 619H380V620H355ZM440 619H509V620H440ZM219 620H286V621H219ZM307 620H331V621H307ZM355 620H380V621H355ZM437 620H507V621H437ZM220 621H290V622H220ZM307 621H331V622H307ZM355 621H380V622H355ZM433 621H505V622H433ZM222 622H293V623H222ZM307 622H331V623H307ZM355 622H380V623H355ZM430 622H503V623H430ZM224 623H297V624H224ZM307 623H331V624H307ZM355 623H380V624H355ZM426 623H501V624H426ZM226 624H301V625H226ZM307 624H332V625H307ZM355 624H380V625H355ZM421 624H499V625H421ZM228 625H229V626H228ZM230 625H306V626H230ZM307 625H331V626H307ZM355 625H380V626H355ZM418 625H497V626H418ZM230 626H331V627H230ZM355 626H380V627H355ZM414 626H496V627H414ZM232 627H331V628H232ZM355 627H380V628H355ZM408 627H493V628H408ZM234 628H331V629H234ZM355 628H380V629H355ZM401 628H491V629H401ZM236 629H331V630H236ZM355 629H380V630H355ZM393 629H489V630H393ZM238 630H331V631H238ZM355 630H380V631H355ZM386 630H487V631H386ZM240 631H332V632H240ZM355 631H485V632H355ZM242 632H332V633H242ZM355 632H483V633H355ZM244 633H331V634H244ZM355 633H481V634H355ZM246 634H332V635H246ZM355 634H479V635H355ZM249 635H332V636H249ZM355 635H476V636H355ZM251 636H332V637H251ZM355 636H473V637H355ZM253 637H332V638H253ZM355 637H471V638H355ZM256 638H332V639H256ZM355 638H468V639H355ZM259 639H332V640H259ZM355 639H466V640H355ZM261 640H331V641H261ZM355 640H463V641H355ZM264 641H331V642H264ZM355 641H460V642H355ZM267 642H332V643H267ZM355 642H457V643H355ZM270 643H332V644H270ZM355 643H454V644H355ZM273 644H332V645H273ZM355 644H451V645H355ZM276 645H332V646H276ZM355 645H448V646H355ZM279 646H332V647H279ZM355 646H445V647H355ZM283 647H332V648H283ZM355 647H441V648H355ZM286 648H332V649H286ZM355 648H437V649H355ZM290 649H332V650H290ZM355 649H434V650H355ZM294 650H332V651H294ZM355 650H429V651H355ZM298 651H332V652H298ZM355 651H424V652H355ZM303 652H332V653H303ZM355 652H419V653H355ZM308 653H332V654H308ZM355 653H410V654H355ZM412 653H414V654H412ZM314 654H315V655H314ZM317 654H332V655H317ZM355 654H408V655H355ZM320 655H332V656H320ZM355 655H399V656H355ZM330 656H331V657H330ZM354 656H391V657H354ZM354 657H382V658H354Z"/>
</svg>
