<svg xmlns="http://www.w3.org/2000/svg" viewBox="0 0 720 720" role="img" aria-label="Rosa central Soy Autoconocimiento">
  <path fill="#dfc48f" d="M318 218H334V219H318ZM312 219H340V220H312ZM309 220H343V221H309ZM306 221H348V222H306ZM304 222H350V223H304ZM301 223H352V224H301ZM299 224H355V225H299ZM298 225H357V226H298ZM296 226H358V227H296ZM386 226H404V227H386ZM294 227H360V228H294ZM380 227H408V228H380ZM293 228H362V229H293ZM377 228H412V229H377ZM291 229H364V230H291ZM374 229H415V230H374ZM290 230H365V231H290ZM371 230H418V231H371ZM289 231H367V232H289ZM368 231H420V232H368ZM287 232H422V233H287ZM287 233H424V234H287ZM286 234H426V235H286ZM285 235H427V236H285ZM284 236H429V237H284ZM283 237H430V238H283ZM282 238H432V239H282ZM282 239H433V240H282ZM281 240H434V241H281ZM281 241H435V242H281ZM280 242H436V243H280ZM280 243H437V244H280ZM279 244H320V245H279ZM322 244H438V245H322ZM279 245H317V246H279ZM323 245H439V246H323ZM278 246H315V247H278ZM324 246H440V247H324ZM278 247H313V248H278ZM325 247H441V248H325ZM278 248H311V249H278ZM326 248H441V249H326ZM277 249H309V250H277ZM326 249H442V250H326ZM277 250H308V251H277ZM327 250H443V251H327ZM277 251H307V252H277ZM328 251H443V252H328ZM276 252H306V253H276ZM329 252H444V253H329ZM276 253H305V254H276ZM330 253H444V254H330ZM276 254H304V255H276ZM332 254H445V255H332ZM276 255H304V256H276ZM333 255H389V256H333ZM398 255H445V256H398ZM276 256H306V257H276ZM335 256H384V257H335ZM403 256H446V257H403ZM276 257H307V258H276ZM337 257H381V258H337ZM406 257H446V258H406ZM276 258H309V259H276ZM340 258H378V259H340ZM409 258H446V259H409ZM276 259H310V260H276ZM358 259H375V260H358ZM411 259H446V260H411ZM276 260H311V261H276ZM362 260H373V261H362ZM414 260H446V261H414ZM276 261H312V262H276ZM367 261H371V262H367ZM416 261H446V262H416ZM276 262H313V263H276ZM418 262H446V263H418ZM276 263H313V264H276ZM419 263H447V264H419ZM274 264H314V265H274ZM420 264H447V265H420ZM272 265H315V266H272ZM421 265H447V266H421ZM271 266H315V267H271ZM422 266H446V267H422ZM269 267H316V268H269ZM418 267H446V268H418ZM268 268H317V269H268ZM417 268H446V269H417ZM266 269H317V270H266ZM348 269H357V270H348ZM413 269H449V270H413ZM265 270H317V271H265ZM341 270H364V271H341ZM410 270H452V271H410ZM264 271H318V272H264ZM336 271H369V272H336ZM408 271H455V272H408ZM262 272H318V273H262ZM333 272H373V273H333ZM405 272H457V273H405ZM261 273H318V274H261ZM329 273H376V274H329ZM403 273H460V274H403ZM260 274H318V275H260ZM327 274H379V275H327ZM402 274H461V275H402ZM259 275H318V276H259ZM325 275H381V276H325ZM401 275H462V276H401ZM258 276H295V277H258ZM300 276H318V277H300ZM323 276H382V277H323ZM400 276H464V277H400ZM257 277H293V278H257ZM301 277H318V278H301ZM319 277H384V278H319ZM399 277H465V278H399ZM256 278H292V279H256ZM301 278H318V279H301ZM319 278H386V279H319ZM398 278H466V279H398ZM255 279H290V280H255ZM301 279H318V280H301ZM319 279H387V280H319ZM397 279H467V280H397ZM254 280H288V281H254ZM301 280H388V281H301ZM396 280H468V281H396ZM254 281H287V282H254ZM301 281H389V282H301ZM395 281H469V282H395ZM253 282H286V283H253ZM301 282H391V283H301ZM395 282H470V283H395ZM252 283H284V284H252ZM301 283H392V284H301ZM396 283H471V284H396ZM251 284H283V285H251ZM300 284H393V285H300ZM399 284H472V285H399ZM251 285H282V286H251ZM298 285H394V286H298ZM404 285H473V286H404ZM250 286H280V287H250ZM295 286H395V287H295ZM407 286H473V287H407ZM250 287H280V288H250ZM294 287H395V288H294ZM410 287H474V288H410ZM249 288H279V289H249ZM292 288H396V289H292ZM414 288H474V289H414ZM248 289H278V290H248ZM290 289H397V290H290ZM418 289H475V290H418ZM248 290H277V291H248ZM289 290H397V291H289ZM420 290H476V291H420ZM247 291H276V292H247ZM287 291H398V292H287ZM423 291H476V292H423ZM247 292H276V293H247ZM285 292H398V293H285ZM425 292H477V293H425ZM246 293H275V294H246ZM284 293H398V294H284ZM427 293H477V294H427ZM246 294H274V295H246ZM282 294H332V295H282ZM348 294H399V295H348ZM429 294H477V295H429ZM245 295H274V296H245ZM281 295H328V296H281ZM354 295H399V296H354ZM431 295H478V296H431ZM244 296H273V297H244ZM280 296H323V297H280ZM358 296H399V297H358ZM432 296H478V297H432ZM244 297H273V298H244ZM278 297H320V298H278ZM362 297H399V298H362ZM434 297H479V298H434ZM244 298H273V299H244ZM277 298H318V299H277ZM364 298H399V299H364ZM435 298H479V299H435ZM243 299H272V300H243ZM276 299H315V300H276ZM366 299H399V300H366ZM437 299H479V300H437ZM243 300H272V301H243ZM274 300H312V301H274ZM368 300H400V301H368ZM438 300H480V301H438ZM243 301H310V302H243ZM370 301H400V302H370ZM439 301H480V302H439ZM242 302H308V303H242ZM371 302H400V303H371ZM441 302H480V303H441ZM242 303H306V304H242ZM372 303H399V304H372ZM442 303H481V304H442ZM242 304H304V305H242ZM373 304H399V305H373ZM442 304H481V305H442ZM241 305H303V306H241ZM374 305H399V306H374ZM443 305H481V306H443ZM241 306H302V307H241ZM375 306H399V307H375ZM444 306H481V307H444ZM241 307H300V308H241ZM344 307H346V308H344ZM375 307H399V308H375ZM445 307H481V308H445ZM241 308H299V309H241ZM338 308H347V309H338ZM375 308H398V309H375ZM446 308H482V309H446ZM240 309H297V310H240ZM333 309H347V310H333ZM376 309H398V310H376ZM447 309H482V310H447ZM240 310H296V311H240ZM331 310H347V311H331ZM376 310H398V311H376ZM406 310H419V311H406ZM447 310H482V311H447ZM240 311H294V312H240ZM328 311H347V312H328ZM376 311H397V312H376ZM403 311H422V312H403ZM448 311H482V312H448ZM240 312H293V313H240ZM326 312H347V313H326ZM357 312H366V313H357ZM375 312H397V313H375ZM403 312H424V313H403ZM449 312H482V313H449ZM240 313H292V314H240ZM324 313H347V314H324ZM354 313H371V314H354ZM374 313H396V314H374ZM402 313H427V314H402ZM449 313H482V314H449ZM240 314H291V315H240ZM323 314H347V315H323ZM353 314H396V315H353ZM402 314H428V315H402ZM450 314H482V315H450ZM240 315H290V316H240ZM321 315H347V316H321ZM350 315H395V316H350ZM402 315H430V316H402ZM451 315H482V316H451ZM240 316H289V317H240ZM320 316H394V317H320ZM403 316H431V317H403ZM451 316H482V317H451ZM240 317H288V318H240ZM319 317H393V318H319ZM404 317H432V318H404ZM452 317H482V318H452ZM240 318H287V319H240ZM318 318H393V319H318ZM405 318H433V319H405ZM452 318H482V319H452ZM240 319H286V320H240ZM317 319H392V320H317ZM407 319H434V320H407ZM453 319H482V320H453ZM240 320H285V321H240ZM317 320H390V321H317ZM408 320H435V321H408ZM453 320H481V321H453ZM240 321H284V322H240ZM316 321H389V322H316ZM409 321H436V322H409ZM453 321H481V322H453ZM240 322H283V323H240ZM316 322H388V323H316ZM410 322H437V323H410ZM454 322H481V323H454ZM240 323H282V324H240ZM315 323H387V324H315ZM410 323H438V324H410ZM454 323H480V324H454ZM241 324H282V325H241ZM314 324H385V325H314ZM411 324H439V325H411ZM454 324H480V325H454ZM241 325H281V326H241ZM314 325H383V326H314ZM412 325H440V326H412ZM455 325H480V326H455ZM241 326H280V327H241ZM313 326H381V327H313ZM412 326H440V327H412ZM455 326H480V327H455ZM242 327H279V328H242ZM296 327H299V328H296ZM313 327H380V328H313ZM413 327H441V328H413ZM455 327H479V328H455ZM241 328H278V329H241ZM294 328H299V329H294ZM313 328H380V329H313ZM414 328H441V329H414ZM455 328H479V329H455ZM242 329H277V330H242ZM293 329H299V330H293ZM313 329H381V330H313ZM414 329H442V330H414ZM455 329H479V330H455ZM241 330H277V331H241ZM292 330H299V331H292ZM312 330H383V331H312ZM414 330H442V331H414ZM456 330H479V331H456ZM239 331H276V332H239ZM291 331H299V332H291ZM312 331H383V332H312ZM415 331H443V332H415ZM456 331H480V332H456ZM237 332H275V333H237ZM290 332H298V333H290ZM312 332H385V333H312ZM415 332H443V333H415ZM456 332H486V333H456ZM236 333H275V334H236ZM289 333H298V334H289ZM312 333H386V334H312ZM415 333H444V334H415ZM456 333H489V334H456ZM234 334H274V335H234ZM289 334H298V335H289ZM312 334H386V335H312ZM416 334H444V335H416ZM456 334H491V335H456ZM233 335H274V336H233ZM288 335H298V336H288ZM312 335H387V336H312ZM416 335H444V336H416ZM456 335H492V336H456ZM232 336H274V337H232ZM288 336H298V337H288ZM312 336H336V337H312ZM338 336H388V337H338ZM416 336H445V337H416ZM456 336H493V337H456ZM231 337H276V338H231ZM288 337H298V338H288ZM312 337H335V338H312ZM338 337H389V338H338ZM416 337H445V338H416ZM456 337H495V338H456ZM230 338H278V339H230ZM287 338H298V339H287ZM312 338H334V339H312ZM339 338H390V339H339ZM416 338H445V339H416ZM456 338H496V339H456ZM229 339H281V340H229ZM286 339H298V340H286ZM312 339H333V340H312ZM340 339H390V340H340ZM416 339H446V340H416ZM456 339H497V340H456ZM228 340H283V341H228ZM286 340H298V341H286ZM312 340H332V341H312ZM340 340H391V341H340ZM417 340H446V341H417ZM456 340H497V341H456ZM227 341H298V342H227ZM312 341H331V342H312ZM342 341H392V342H342ZM417 341H446V342H417ZM456 341H498V342H456ZM227 342H298V343H227ZM313 342H330V343H313ZM343 342H392V343H343ZM417 342H446V343H417ZM456 342H499V343H456ZM226 343H298V344H226ZM313 343H330V344H313ZM344 343H392V344H344ZM417 343H446V344H417ZM456 343H500V344H456ZM225 344H298V345H225ZM313 344H329V345H313ZM345 344H393V345H345ZM417 344H446V345H417ZM456 344H501V345H456ZM224 345H299V346H224ZM313 345H329V346H313ZM346 345H393V346H346ZM417 345H447V346H417ZM455 345H502V346H455ZM224 346H299V347H224ZM314 346H328V347H314ZM347 346H368V347H347ZM370 346H394V347H370ZM417 346H447V347H417ZM456 346H502V347H456ZM223 347H246V348H223ZM248 347H299V348H248ZM314 347H328V348H314ZM349 347H366V348H349ZM371 347H394V348H371ZM417 347H447V348H417ZM455 347H503V348H455ZM223 348H246V349H223ZM248 348H299V349H248ZM314 348H328V349H314ZM351 348H365V349H351ZM371 348H394V349H371ZM416 348H447V349H416ZM455 348H474V349H455ZM475 348H503V349H475ZM222 349H245V350H222ZM248 349H300V350H248ZM315 349H327V350H315ZM354 349H363V350H354ZM371 349H394V350H371ZM416 349H447V350H416ZM455 349H473V350H455ZM475 349H504V350H475ZM222 350H245V351H222ZM249 350H300V351H249ZM315 350H327V351H315ZM372 350H394V351H372ZM416 350H447V351H416ZM454 350H473V351H454ZM476 350H504V351H476ZM221 351H245V352H221ZM250 351H300V352H250ZM316 351H327V352H316ZM372 351H395V352H372ZM416 351H447V352H416ZM454 351H472V352H454ZM476 351H504V352H476ZM221 352H244V353H221ZM250 352H301V353H250ZM317 352H327V353H317ZM372 352H395V353H372ZM416 352H447V353H416ZM454 352H472V353H454ZM476 352H505V353H476ZM221 353H244V354H221ZM251 353H301V354H251ZM317 353H326V354H317ZM372 353H395V354H372ZM416 353H447V354H416ZM453 353H471V354H453ZM476 353H505V354H476ZM220 354H244V355H220ZM251 354H301V355H251ZM318 354H326V355H318ZM372 354H395V355H372ZM416 354H447V355H416ZM453 354H471V355H453ZM477 354H505V355H477ZM220 355H244V356H220ZM252 355H302V356H252ZM319 355H326V356H319ZM372 355H395V356H372ZM415 355H447V356H415ZM453 355H470V356H453ZM477 355H505V356H477ZM220 356H244V357H220ZM253 356H302V357H253ZM320 356H326V357H320ZM372 356H395V357H372ZM415 356H446V357H415ZM452 356H469V357H452ZM477 356H506V357H477ZM219 357H243V358H219ZM255 357H303V358H255ZM321 357H326V358H321ZM371 357H395V358H371ZM415 357H446V358H415ZM452 357H469V358H452ZM478 357H506V358H478ZM219 358H243V359H219ZM255 358H303V359H255ZM371 358H395V359H371ZM414 358H446V359H414ZM451 358H468V359H451ZM478 358H506V359H478ZM219 359H243V360H219ZM255 359H304V360H255ZM370 359H395V360H370ZM414 359H446V360H414ZM451 359H468V360H451ZM478 359H506V360H478ZM219 360H243V361H219ZM257 360H304V361H257ZM370 360H395V361H370ZM414 360H445V361H414ZM450 360H467V361H450ZM478 360H506V361H478ZM218 361H243V362H218ZM258 361H305V362H258ZM369 361H394V362H369ZM413 361H445V362H413ZM449 361H466V362H449ZM478 361H506V362H478ZM218 362H242V363H218ZM259 362H306V363H259ZM368 362H394V363H368ZM413 362H445V363H413ZM449 362H465V363H449ZM478 362H507V363H478ZM218 363H242V364H218ZM261 363H306V364H261ZM340 363H343V364H340ZM366 363H394V364H366ZM412 363H445V364H412ZM448 363H464V364H448ZM478 363H507V364H478ZM218 364H242V365H218ZM264 364H307V365H264ZM338 364H346V365H338ZM364 364H393V365H364ZM412 364H444V365H412ZM448 364H463V365H448ZM478 364H507V365H478ZM218 365H242V366H218ZM268 365H308V366H268ZM337 365H350V366H337ZM362 365H393V366H362ZM411 365H444V366H411ZM447 365H462V366H447ZM478 365H507V366H478ZM218 366H242V367H218ZM273 366H308V367H273ZM337 366H393V367H337ZM411 366H444V367H411ZM446 366H461V367H446ZM478 366H507V367H478ZM218 367H243V368H218ZM274 367H309V368H274ZM337 367H392V368H337ZM410 367H444V368H410ZM446 367H461V368H446ZM478 367H507V368H478ZM218 368H243V369H218ZM274 368H310V369H274ZM337 368H392V369H337ZM409 368H443V369H409ZM445 368H459V369H445ZM478 368H507V369H478ZM218 369H243V370H218ZM275 369H310V370H275ZM337 369H392V370H337ZM409 369H443V370H409ZM444 369H458V370H444ZM478 369H507V370H478ZM218 370H243V371H218ZM275 370H311V371H275ZM337 370H391V371H337ZM408 370H442V371H408ZM444 370H457V371H444ZM477 370H507V371H477ZM218 371H243V372H218ZM275 371H312V372H275ZM337 371H391V372H337ZM408 371H455V372H408ZM477 371H507V372H477ZM218 372H243V373H218ZM275 372H313V373H275ZM338 372H390V373H338ZM407 372H454V373H407ZM477 372H507V373H477ZM218 373H243V374H218ZM276 373H314V374H276ZM339 373H389V374H339ZM406 373H452V374H406ZM477 373H507V374H477ZM218 374H243V375H218ZM276 374H315V375H276ZM339 374H388V375H339ZM405 374H450V375H405ZM477 374H506V375H477ZM218 375H244V376H218ZM276 375H317V376H276ZM340 375H388V376H340ZM404 375H448V376H404ZM477 375H506V376H477ZM218 376H244V377H218ZM276 376H318V377H276ZM341 376H387V377H341ZM403 376H446V377H403ZM477 376H506V377H477ZM218 377H244V378H218ZM277 377H319V378H277ZM342 377H385V378H342ZM403 377H444V378H403ZM477 377H506V378H477ZM218 378H244V379H218ZM277 378H320V379H277ZM342 378H384V379H342ZM402 378H441V379H402ZM476 378H506V379H476ZM218 379H244V380H218ZM278 379H321V380H278ZM343 379H383V380H343ZM401 379H437V380H401ZM476 379H506V380H476ZM219 380H245V381H219ZM278 380H323V381H278ZM345 380H382V381H345ZM399 380H436V381H399ZM476 380H506V381H476ZM219 381H245V382H219ZM278 381H324V382H278ZM346 381H380V382H346ZM398 381H436V382H398ZM476 381H505V382H476ZM219 382H245V383H219ZM279 382H326V383H279ZM348 382H379V383H348ZM397 382H435V383H397ZM475 382H505V383H475ZM219 383H246V384H219ZM279 383H327V384H279ZM351 383H377V384H351ZM396 383H435V384H396ZM475 383H505V384H475ZM219 384H246V385H219ZM280 384H329V385H280ZM353 384H372V385H353ZM394 384H435V385H394ZM475 384H505V385H475ZM219 385H246V386H219ZM280 385H332V386H280ZM357 385H369V386H357ZM393 385H435V386H393ZM475 385H505V386H475ZM219 386H247V387H219ZM281 386H334V387H281ZM391 386H435V387H391ZM474 386H504V387H474ZM220 387H247V388H220ZM282 387H336V388H282ZM389 387H435V388H389ZM474 387H504V388H474ZM220 388H247V389H220ZM282 388H338V389H282ZM387 388H435V389H387ZM474 388H504V389H474ZM220 389H248V390H220ZM283 389H341V390H283ZM386 389H434V390H386ZM474 389H504V390H474ZM220 390H248V391H220ZM284 390H343V391H284ZM384 390H434V391H384ZM473 390H503V391H473ZM220 391H248V392H220ZM284 391H344V392H284ZM383 391H434V392H383ZM473 391H503V392H473ZM221 392H249V393H221ZM285 392H347V393H285ZM381 392H434V393H381ZM472 392H503V393H472ZM221 393H250V394H221ZM286 393H349V394H286ZM380 393H434V394H380ZM472 393H503V394H472ZM221 394H250V395H221ZM287 394H349V395H287ZM379 394H434V395H379ZM472 394H502V395H472ZM222 395H250V396H222ZM288 395H349V396H288ZM378 395H433V396H378ZM471 395H502V396H471ZM222 396H251V397H222ZM289 396H349V397H289ZM377 396H433V397H377ZM471 396H502V397H471ZM222 397H251V398H222ZM290 397H348V398H290ZM377 397H433V398H377ZM470 397H501V398H470ZM223 398H252V399H223ZM291 398H347V399H291ZM376 398H433V399H376ZM470 398H501V399H470ZM223 399H252V400H223ZM292 399H346V400H292ZM376 399H432V400H376ZM470 399H501V400H470ZM223 400H253V401H223ZM293 400H344V401H293ZM375 400H432V401H375ZM469 400H501V401H469ZM224 401H253V402H224ZM293 401H343V402H293ZM375 401H432V402H375ZM469 401H500V402H469ZM224 402H254V403H224ZM293 402H342V403H293ZM374 402H431V403H374ZM468 402H500V403H468ZM224 403H254V404H224ZM292 403H340V404H292ZM374 403H431V404H374ZM468 403H500V404H468ZM225 404H255V405H225ZM292 404H338V405H292ZM374 404H431V405H374ZM467 404H499V405H467ZM225 405H256V406H225ZM292 405H336V406H292ZM374 405H430V406H374ZM467 405H499V406H467ZM226 406H256V407H226ZM292 406H333V407H292ZM374 406H430V407H374ZM466 406H499V407H466ZM227 407H257V408H227ZM291 407H328V408H291ZM374 407H430V408H374ZM466 407H498V408H466ZM227 408H258V409H227ZM291 408H324V409H291ZM374 408H429V409H374ZM465 408H498V409H465ZM227 409H258V410H227ZM291 409H320V410H291ZM374 409H429V410H374ZM465 409H497V410H465ZM227 410H259V411H227ZM291 410H321V411H291ZM374 410H429V411H374ZM464 410H497V411H464ZM228 411H260V412H228ZM291 411H323V412H291ZM374 411H428V412H374ZM463 411H496V412H463ZM228 412H260V413H228ZM291 412H324V413H291ZM375 412H427V413H375ZM463 412H496V413H463ZM229 413H261V414H229ZM291 413H325V414H291ZM375 413H427V414H375ZM462 413H496V414H462ZM229 414H262V415H229ZM291 414H327V415H291ZM375 414H427V415H375ZM462 414H495V415H462ZM230 415H263V416H230ZM292 415H328V416H292ZM376 415H426V416H376ZM461 415H495V416H461ZM230 416H263V417H230ZM292 416H330V417H292ZM376 416H426V417H376ZM460 416H494V417H460ZM231 417H264V418H231ZM292 417H332V418H292ZM377 417H425V418H377ZM460 417H494V418H460ZM232 418H265V419H232ZM293 418H334V419H293ZM378 418H424V419H378ZM459 418H493V419H459ZM232 419H266V420H232ZM293 419H336V420H293ZM379 419H424V420H379ZM459 419H493V420H459ZM233 420H267V421H233ZM293 420H339V421H293ZM380 420H423V421H380ZM458 420H493V421H458ZM233 421H268V422H233ZM294 421H342V422H294ZM379 421H422V422H379ZM457 421H492V422H457ZM234 422H269V423H234ZM294 422H346V423H294ZM374 422H422V423H374ZM457 422H492V423H457ZM235 423H270V424H235ZM294 423H352V424H294ZM369 423H421V424H369ZM456 423H491V424H456ZM235 424H270V425H235ZM295 424H420V425H295ZM455 424H491V425H455ZM236 425H271V426H236ZM295 425H419V426H295ZM454 425H490V426H454ZM236 426H272V427H236ZM296 426H419V427H296ZM454 426H489V427H454ZM237 427H274V428H237ZM298 427H418V428H298ZM453 427H489V428H453ZM238 428H275V429H238ZM298 428H417V429H298ZM452 428H488V429H452ZM238 429H276V430H238ZM298 429H416V430H298ZM451 429H488V430H451ZM239 430H277V431H239ZM299 430H415V431H299ZM451 430H487V431H451ZM240 431H278V432H240ZM300 431H414V432H300ZM450 431H487V432H450ZM241 432H279V433H241ZM301 432H414V433H301ZM449 432H486V433H449ZM242 433H280V434H242ZM302 433H413V434H302ZM448 433H485V434H448ZM242 434H282V435H242ZM303 434H412V435H303ZM448 434H485V435H448ZM244 435H283V436H244ZM304 435H410V436H304ZM447 435H484V436H447ZM245 436H284V437H245ZM305 436H410V437H305ZM446 436H484V437H446ZM244 437H285V438H244ZM306 437H409V438H306ZM445 437H483V438H445ZM245 438H286V439H245ZM308 438H407V439H308ZM444 438H483V439H444ZM246 439H287V440H246ZM309 439H406V440H309ZM443 439H482V440H443ZM247 440H289V441H247ZM311 440H405V441H311ZM442 440H481V441H442ZM248 441H290V442H248ZM312 441H403V442H312ZM442 441H481V442H442ZM249 442H292V443H249ZM314 442H402V443H314ZM441 442H480V443H441ZM250 443H293V444H250ZM315 443H400V444H315ZM440 443H479V444H440ZM251 444H295V445H251ZM318 444H398V445H318ZM439 444H479V445H439ZM252 445H296V446H252ZM320 445H396V446H320ZM438 445H478V446H438ZM253 446H297V447H253ZM324 446H394V447H324ZM436 446H477V447H436ZM254 447H299V448H254ZM330 447H392V448H330ZM436 447H476V448H436ZM255 448H301V449H255ZM338 448H386V449H338ZM434 448H476V449H434ZM256 449H302V450H256ZM342 449H372V450H342ZM433 449H475V450H433ZM257 450H304V451H257ZM344 450H370V451H344ZM432 450H474V451H432ZM258 451H306V452H258ZM344 451H370V452H344ZM431 451H473V452H431ZM259 452H307V453H259ZM345 452H370V453H345ZM430 452H473V453H430ZM260 453H309V454H260ZM345 453H370V454H345ZM429 453H472V454H429ZM261 454H311V455H261ZM346 454H370V455H346ZM428 454H471V455H428ZM263 455H313V456H263ZM345 455H370V456H345ZM427 455H470V456H427ZM264 456H314V457H264ZM346 456H370V457H346ZM426 456H470V457H426ZM265 457H316V458H265ZM346 457H370V458H346ZM424 457H469V458H424ZM266 458H318V459H266ZM346 458H370V459H346ZM423 458H468V459H423ZM268 459H321V460H268ZM345 459H370V460H345ZM422 459H467V460H422ZM269 460H324V461H269ZM344 460H370V461H344ZM421 460H466V461H421ZM270 461H271V462H270ZM272 461H328V462H272ZM344 461H370V462H344ZM419 461H465V462H419ZM272 462H331V463H272ZM342 462H370V463H342ZM418 462H465V463H418ZM273 463H370V464H273ZM416 463H464V464H416ZM274 464H370V465H274ZM415 464H463V465H415ZM276 465H370V466H276ZM413 465H462V466H413ZM278 466H369V467H278ZM412 466H461V467H412ZM279 467H369V468H279ZM410 467H460V468H410ZM281 468H368V469H281ZM409 468H459V469H409ZM282 469H368V470H282ZM407 469H458V470H407ZM284 470H367V471H284ZM406 470H457V471H406ZM286 471H367V472H286ZM404 471H456V472H404ZM287 472H366V473H287ZM402 472H455V473H402ZM289 473H365V474H289ZM400 473H454V474H400ZM291 474H364V475H291ZM398 474H453V475H398ZM292 475H363V476H292ZM396 475H452V476H396ZM294 476H362V477H294ZM394 476H451V477H394ZM296 477H361V478H296ZM392 477H449V478H392ZM299 478H360V479H299ZM389 478H448V479H389ZM301 479H358V480H301ZM387 479H447V480H387ZM303 480H357V481H303ZM383 480H446V481H383ZM305 481H355V482H305ZM380 481H445V482H380ZM307 482H354V483H307ZM377 482H444V483H377ZM309 483H352V484H309ZM373 483H443V484H373ZM312 484H350V485H312ZM369 484H441V485H369ZM314 485H348V486H314ZM365 485H440V486H365ZM316 486H345V487H316ZM360 486H439V487H360ZM319 487H343V488H319ZM354 487H437V488H354ZM323 488H338V489H323ZM354 488H436V489H354ZM354 489H435V490H354ZM354 490H433V491H354ZM354 491H431V492H354ZM354 492H430V493H354ZM354 493H429V494H354ZM354 494H427V495H354ZM354 495H425V496H354ZM354 496H423V497H354ZM354 497H421V498H354ZM354 498H420V499H354ZM354 499H418V500H354ZM354 500H416V501H354ZM354 501H414V502H354ZM354 502H412V503H354ZM354 503H410V504H354ZM354 504H407V505H354ZM354 505H405V506H354ZM354 506H403V507H354ZM354 507H400V508H354ZM354 508H397V509H354ZM354 509H394V510H354ZM354 510H391V511H354ZM354 511H388V512H354ZM354 512H384V513H354ZM354 513H382V514H354ZM354 514H380V515H354ZM354 515H380V516H354ZM354 516H380V517H354ZM354 517H380V518H354ZM354 518H380V519H354ZM354 519H380V520H354ZM354 520H380V521H354ZM354 521H380V522H354ZM354 522H380V523H354ZM354 523H380V524H354ZM354 524H380V525H354ZM354 525H380V526H354ZM354 526H380V527H354ZM354 527H380V528H354ZM354 528H380V529H354ZM354 529H379V530H354Z"/>
</svg>
